<svg xmlns="http://www.w3.org/2000/svg" xmlns:xlink="http://www.w3.org/1999/xlink" width="390" zoomAndPan="magnify" viewBox="0 0 292.5 292.5" height="390" preserveAspectRatio="xMidYMid meet" version="1.0"><defs><g/><clipPath id="69b72cbcb2"><path d="M 263 271 L 291.925781 271 L 291.925781 290 L 263 290 Z M 263 271 " clip-rule="nonzero"/></clipPath><clipPath id="91501592a2"><path d="M 2.921875 263 L 45 263 L 45 290 L 2.921875 290 Z M 2.921875 263 " clip-rule="nonzero"/></clipPath></defs><path fill="#65c688" d="M 247.378906 272.925781 C 247.484375 278.640625 251.976562 281.667969 252.589844 289.351562 L 258.015625 289.351562 L 257.339844 279.148438 C 257.339844 274.628906 254.890625 274.09375 254.644531 267.9375 C 254.632812 267.636719 254.578125 267.335938 254.484375 267.054688 C 254.371094 266.710938 254.199219 266.394531 253.96875 266.113281 C 253.324219 265.339844 252.222656 265.066406 251.386719 264.503906 C 250.648438 264.007812 250.140625 263.144531 249.90625 262.566406 C 249.886719 262.511719 249.878906 262.457031 249.875 262.398438 C 249.871094 261.738281 249.773438 258.75 247.832031 256.554688 C 246.710938 255.289062 244.929688 255.171875 243.246094 255.0625 C 242.734375 255.03125 242.21875 254.960938 241.785156 254.820312 C 241.542969 254.738281 241.316406 254.519531 241.113281 254.359375 C 240.261719 253.6875 237.628906 252.191406 235.441406 251.734375 C 234.691406 251.578125 233.9375 251.835938 233.3125 252.277344 C 231.890625 253.277344 231.648438 255.011719 233.285156 255.589844 C 234.566406 256.042969 236.121094 256.382812 237.375 256.691406 C 238.160156 256.882812 238.683594 257.59375 238.683594 258.402344 C 238.683594 258.941406 238.355469 262.058594 240.953125 264.101562 C 241.023438 264.15625 241.082031 264.222656 241.132812 264.296875 C 242.101562 265.667969 245.140625 265.9375 246.8125 269.171875 C 247.402344 270.308594 247.355469 271.640625 247.378906 272.925781 Z M 247.378906 272.925781 " fill-opacity="1" fill-rule="nonzero"/><path fill="#007d41" d="M 238.398438 254.820312 C 238.496094 254.660156 238.707031 254.613281 238.863281 254.714844 C 244.890625 258.511719 248.910156 265.222656 251.421875 271.929688 C 253.9375 278.640625 254.964844 285.394531 254.964844 289.351562 L 254.285156 289.351562 C 254.285156 285.484375 253.277344 278.808594 250.789062 272.167969 C 248.296875 265.523438 244.347656 258.972656 238.503906 255.289062 C 238.34375 255.191406 238.296875 254.980469 238.398438 254.820312 Z M 238.398438 254.820312 " fill-opacity="1" fill-rule="evenodd"/><g clip-path="url(#69b72cbcb2)"><path fill="#65c688" d="M 280.425781 282.410156 C 278.515625 292.015625 274.160156 286.144531 271.921875 289.351562 L 263.78125 289.351562 L 263.933594 287.308594 L 265.28125 284.632812 C 266.0625 283.074219 265.835938 281.125 266.609375 279.566406 C 267.726562 277.316406 271.523438 276.613281 273.277344 275.40625 L 275.992188 273.59375 C 277.5625 272.542969 279.324219 271.707031 281.203125 271.828125 C 285.882812 272.132812 291.730469 275.121094 291.925781 281.855469 C 291.933594 282.070312 291.8125 282.269531 291.621094 282.367188 C 291.402344 282.476562 291.140625 282.429688 290.949219 282.277344 C 289.882812 281.414062 288.480469 281.1875 287.863281 281.1875 C 286.113281 281.1875 284.363281 280.265625 282.613281 280.1875 C 281.425781 280.136719 280.65625 281.242188 280.425781 282.410156 Z M 280.425781 282.410156 " fill-opacity="1" fill-rule="nonzero"/></g><path fill="#007d41" d="M 270.648438 281.660156 C 269.144531 283.503906 268.191406 286.019531 268.191406 289.351562 L 267.515625 289.351562 C 267.515625 285.882812 268.507812 283.210938 270.121094 281.230469 C 271.730469 279.25 273.933594 277.988281 276.316406 277.292969 C 281.058594 275.90625 286.589844 276.761719 289.742188 278.867188 C 289.898438 278.96875 289.941406 279.179688 289.835938 279.335938 C 289.734375 279.492188 289.523438 279.535156 289.367188 279.429688 C 286.402344 277.453125 281.082031 276.609375 276.503906 277.945312 C 274.226562 278.609375 272.152344 279.808594 270.648438 281.660156 Z M 270.648438 281.660156 " fill-opacity="1" fill-rule="evenodd"/><path fill="#007d41" d="M 257.339844 279.148438 C 257.339844 274.628906 254.894531 274.09375 254.644531 267.9375 C 254.632812 267.636719 254.582031 267.335938 254.484375 267.054688 C 255.304688 261.804688 258.355469 259.761719 258.355469 256.363281 C 257.515625 253.558594 257.140625 251.042969 257.152344 248.984375 C 257.175781 244.832031 261.253906 242.0625 262.71875 238.179688 C 264.019531 234.734375 264.125 231.25 265.183594 228.605469 C 265.789062 227.097656 267.421875 226.433594 269.042969 226.433594 C 271.71875 226.433594 274.160156 228.285156 274.332031 230.96875 C 274.648438 235.914062 272.789062 237.128906 271.921875 237.996094 C 268.917969 241.242188 269.09375 245.054688 269.597656 247.414062 C 269.910156 248.871094 270.410156 250.300781 270.472656 251.792969 C 270.710938 257.347656 267.140625 255.929688 266.835938 258.0625 L 266.835938 259.039062 C 266.835938 260.398438 267.296875 261.703125 267.863281 262.9375 C 270.050781 267.671875 267.996094 271.605469 266.359375 273.722656 C 265.460938 274.886719 264.738281 276.238281 264.628906 277.707031 L 263.933594 287.308594 L 263.78125 289.351562 L 258.015625 289.351562 Z M 257.339844 279.148438 " fill-opacity="1" fill-rule="nonzero"/><path fill="#65c688" d="M 269.394531 231.480469 C 269.519531 231.394531 269.582031 231.238281 269.53125 231.089844 C 269.472656 230.910156 269.277344 230.8125 269.101562 230.871094 C 269.011719 230.902344 268.949219 230.960938 268.921875 230.988281 C 268.886719 231.027344 268.855469 231.066406 268.828125 231.105469 C 268.773438 231.183594 268.71875 231.28125 268.660156 231.398438 C 268.539062 231.628906 268.390625 231.960938 268.222656 232.375 C 267.886719 233.207031 267.449219 234.410156 266.953125 235.941406 C 265.957031 238.996094 264.707031 243.367188 263.484375 248.695312 C 261.039062 259.347656 258.695312 273.84375 258.695312 289.351562 L 259.375 289.351562 C 259.375 273.910156 261.710938 259.464844 264.148438 248.847656 C 265.367188 243.539062 266.609375 239.1875 267.597656 236.152344 C 268.09375 234.632812 268.523438 233.445312 268.851562 232.632812 C 269.019531 232.222656 269.15625 231.917969 269.261719 231.710938 C 269.316406 231.605469 269.355469 231.535156 269.386719 231.492188 C 269.390625 231.488281 269.394531 231.484375 269.394531 231.480469 Z M 269.394531 231.480469 " fill-opacity="1" fill-rule="evenodd"/><path fill="#ffffff" d="M 158.152344 219.050781 C 206.457031 218.683594 245.5 179.34375 245.5 130.871094 C 245.5 82.167969 206.089844 42.6875 157.46875 42.6875 C 111.140625 42.6875 73.167969 78.539062 69.699219 124.058594 C 69.667969 124.453125 69.980469 124.789062 70.375 124.789062 L 86.914062 124.789062 C 87.9375 124.789062 88.59375 125.878906 88.113281 126.785156 L 63.761719 172.785156 C 63.261719 173.730469 61.914062 173.753906 61.382812 172.828125 L 34.945312 126.828125 C 34.421875 125.917969 35.078125 124.789062 36.121094 124.789062 L 53.796875 124.789062 C 54.15625 124.789062 54.453125 124.503906 54.476562 124.144531 C 57.9375 70.179688 102.726562 27.480469 157.46875 27.480469 C 214.472656 27.480469 260.679688 73.769531 260.679688 130.871094 C 260.679688 187.738281 214.839844 233.886719 158.152344 234.253906 C 157.777344 234.257812 157.46875 233.953125 157.46875 233.578125 L 157.46875 219.734375 C 157.46875 219.355469 157.777344 219.050781 158.152344 219.050781 Z M 158.152344 219.050781 " fill-opacity="1" fill-rule="nonzero"/><path fill="#2b4ea3" d="M 157.210938 50.1875 C 157.210938 50.921875 153.03125 51.519531 147.871094 51.519531 C 142.714844 51.519531 138.535156 50.921875 138.535156 50.1875 C 138.535156 49.449219 142.714844 48.851562 147.871094 48.851562 C 153.03125 48.851562 157.210938 49.449219 157.210938 50.1875 Z M 157.210938 50.1875 " fill-opacity="1" fill-rule="nonzero"/><path fill="#8eacf7" d="M 147.871094 51.519531 C 153.03125 51.519531 157.210938 50.921875 157.210938 50.1875 L 157.210938 63.832031 C 157.210938 64.054688 157.0625 64.253906 156.847656 64.3125 C 150.980469 65.992188 144.765625 65.992188 138.898438 64.3125 C 138.683594 64.253906 138.535156 64.054688 138.535156 63.832031 L 138.535156 50.1875 C 138.535156 50.921875 142.714844 51.519531 147.871094 51.519531 Z M 147.871094 51.519531 " fill-opacity="1" fill-rule="nonzero"/><path fill="#ffffff" d="M 157.386719 54.074219 C 157.492188 54.226562 157.453125 54.4375 157.296875 54.546875 C 154.992188 56.128906 151.492188 56.953125 148.007812 57.386719 C 144.507812 57.824219 140.964844 57.871094 138.535156 57.871094 L 138.535156 57.191406 C 140.957031 57.191406 144.464844 57.140625 147.921875 56.710938 C 151.390625 56.28125 154.75 55.472656 156.914062 53.984375 C 157.070312 53.878906 157.28125 53.917969 157.386719 54.074219 Z M 157.386719 58.761719 C 157.480469 58.925781 157.429688 59.132812 157.269531 59.230469 C 155.039062 60.574219 151.441406 61.398438 147.890625 61.890625 C 144.324219 62.382812 140.75 62.546875 138.535156 62.546875 L 138.535156 61.867188 C 140.726562 61.867188 144.265625 61.703125 147.796875 61.214844 C 151.339844 60.726562 154.816406 59.914062 156.917969 58.648438 C 157.078125 58.550781 157.289062 58.601562 157.386719 58.761719 Z M 157.386719 58.761719 " fill-opacity="1" fill-rule="evenodd"/><path fill="#ffc600" d="M 148.078125 11.695312 C 138.5 11.695312 130.734375 19.46875 130.734375 29.058594 C 130.734375 34.066406 132.851562 38.578125 136.238281 41.746094 C 137.667969 43.308594 140.011719 47.0625 140.972656 49.144531 C 141.289062 49.828125 142.015625 50.425781 142.765625 50.425781 L 153.386719 50.425781 C 153.820312 50.425781 154.230469 50.21875 154.484375 49.863281 C 155.632812 48.277344 157.566406 45.59375 158.804688 43.683594 C 159.605469 42.449219 160.507812 41.253906 161.445312 40.121094 C 163.925781 37.117188 165.417969 33.261719 165.417969 29.058594 C 165.417969 19.46875 157.65625 11.695312 148.078125 11.695312 Z M 148.078125 11.695312 " fill-opacity="1" fill-rule="nonzero"/><path fill="#fe8d00" d="M 152.597656 31.820312 C 152.585938 31.820312 152.546875 31.808594 152.460938 31.898438 C 152.234375 32.132812 151.972656 32.636719 151.730469 33.574219 C 151.519531 34.40625 151.332031 35.542969 151.195312 37.058594 C 152.644531 36.308594 153.078125 34.574219 153.128906 33.089844 C 153.144531 32.714844 153.003906 32.273438 152.8125 32.007812 C 152.714844 31.875 152.636719 31.832031 152.597656 31.820312 Z M 151.128906 37.832031 C 153.246094 37.023438 153.753906 34.730469 153.808594 33.113281 C 153.828125 32.59375 153.648438 32 153.359375 31.605469 C 153.21875 31.410156 153.015625 31.222656 152.753906 31.160156 C 152.464844 31.089844 152.191406 31.199219 151.972656 31.425781 C 151.617188 31.792969 151.320312 32.441406 151.074219 33.40625 C 150.835938 34.339844 150.632812 35.613281 150.488281 37.308594 C 150.363281 37.332031 150.199219 37.351562 150.007812 37.371094 C 149.96875 37.375 149.929688 37.378906 149.890625 37.382812 C 148.246094 37.542969 146.613281 37.699219 145.101562 37.308594 C 144.90625 35.945312 144.675781 34.925781 144.425781 34.179688 C 144.160156 33.40625 143.859375 32.882812 143.5 32.597656 C 143.25 32.394531 142.960938 32.332031 142.679688 32.425781 C 142.425781 32.515625 142.230469 32.714844 142.097656 32.925781 C 141.824219 33.347656 141.683594 33.964844 141.769531 34.488281 C 141.976562 35.773438 142.710938 37.21875 144.488281 37.835938 C 144.839844 40.535156 145.070312 44.558594 145.070312 50.425781 L 145.746094 50.425781 C 145.746094 44.746094 145.535156 40.765625 145.195312 38.03125 C 146.75 38.371094 148.386719 38.210938 149.902344 38.066406 C 149.960938 38.058594 150.015625 38.054688 150.074219 38.046875 C 150.199219 38.035156 150.320312 38.023438 150.4375 38.007812 C 150.230469 40.902344 150.179688 44.925781 150.375 50.441406 L 151.054688 50.417969 C 150.855469 44.773438 150.914062 40.707031 151.128906 37.832031 Z M 144.378906 37.058594 C 144.199219 35.894531 143.996094 35.027344 143.78125 34.398438 C 143.53125 33.660156 143.28125 33.289062 143.078125 33.128906 C 142.980469 33.050781 142.929688 33.0625 142.898438 33.070312 C 142.84375 33.089844 142.757812 33.152344 142.667969 33.292969 C 142.484375 33.578125 142.382812 34.027344 142.4375 34.378906 C 142.605469 35.40625 143.140625 36.496094 144.378906 37.058594 Z M 144.378906 37.058594 " fill-opacity="1" fill-rule="evenodd"/><path fill="#fe8d00" d="M 173.875 16.292969 L 172.382812 13.90625 C 171.90625 13.140625 170.824219 13.058594 170.238281 13.742188 L 166.664062 17.921875 C 165.773438 18.960938 166.832031 20.507812 168.121094 20.050781 L 173.1875 18.261719 C 173.992188 17.976562 174.328125 17.019531 173.875 16.292969 Z M 173.875 16.292969 " fill-opacity="1" fill-rule="nonzero"/><path fill="#fe8d00" d="M 136.53125 2.296875 L 133.207031 3.628906 C 132.335938 3.976562 132.085938 5.089844 132.726562 5.777344 L 137.050781 10.4375 C 137.949219 11.410156 139.558594 10.617188 139.34375 9.308594 L 138.34375 3.316406 C 138.203125 2.472656 137.324219 1.976562 136.53125 2.296875 Z M 136.53125 2.296875 " fill-opacity="1" fill-rule="nonzero"/><path fill="#fe8d00" d="M 158.578125 1.742188 L 155.152344 0.371094 C 154.300781 0.03125 153.367188 0.632812 153.324219 1.546875 L 152.980469 8.75 C 152.917969 10.113281 154.695312 10.683594 155.433594 9.539062 L 159.203125 3.710938 C 159.660156 3.003906 159.359375 2.054688 158.578125 1.742188 Z M 158.578125 1.742188 " fill-opacity="1" fill-rule="nonzero"/><path fill="#fe8d00" d="M 122.226562 19.214844 L 120.246094 22.523438 C 119.75 23.351562 120.265625 24.414062 121.222656 24.535156 L 126.507812 25.195312 C 127.710938 25.347656 128.472656 23.945312 127.699219 23.015625 L 124.394531 19.046875 C 123.808594 18.339844 122.699219 18.425781 122.226562 19.214844 Z M 122.226562 19.214844 " fill-opacity="1" fill-rule="nonzero"/><path fill="#fe8d00" d="M 235.164062 45.234375 L 212.734375 78.609375 C 212.175781 79.441406 212.457031 80.578125 213.339844 81.050781 L 221.988281 85.679688 C 231.988281 91.03125 241.351562 97.5 249.902344 104.960938 L 255.042969 109.445312 C 255.804688 110.109375 256.96875 109.960938 257.542969 109.128906 L 279.953125 76.558594 C 280.507812 75.757812 280.273438 74.652344 279.441406 74.148438 L 261.429688 63.417969 C 258.894531 61.910156 256.472656 60.214844 254.1875 58.351562 L 237.621094 44.859375 C 236.851562 44.238281 235.71875 44.414062 235.164062 45.234375 Z M 235.164062 45.234375 " fill-opacity="1" fill-rule="nonzero"/><path fill="#ffffff" d="M 236.074219 91.015625 L 217.46875 80.632812 L 215.804688 79.441406 C 215.503906 79.230469 215.429688 78.816406 215.632812 78.511719 L 236.507812 47.011719 C 236.730469 46.671875 237.203125 46.605469 237.515625 46.875 L 239.128906 48.257812 L 255.910156 62.007812 C 256.183594 62.230469 256.242188 62.625 256.042969 62.917969 L 236.964844 90.804688 C 236.769531 91.097656 236.382812 91.1875 236.074219 91.015625 Z M 236.074219 91.015625 " fill-opacity="1" fill-rule="nonzero"/><path fill="#ffccba" d="M 217.46875 80.632812 L 239.128906 48.257812 L 237.515625 46.875 C 237.203125 46.605469 236.730469 46.671875 236.507812 47.011719 L 215.632812 78.511719 C 215.429688 78.816406 215.503906 79.230469 215.804688 79.441406 Z M 217.46875 80.632812 " fill-opacity="1" fill-rule="nonzero"/><path fill="#ffccba" d="M 251.792969 63.613281 L 239.863281 54.5 L 240.277344 53.960938 L 252.207031 63.074219 Z M 249.601562 67.078125 L 237.988281 58.589844 L 238.386719 58.042969 L 250 66.527344 Z M 247.71875 70.535156 L 233.90625 60.476562 L 234.304688 59.925781 L 248.117188 69.984375 Z M 247.71875 70.535156 " fill-opacity="1" fill-rule="evenodd"/><path fill="#ffffff" d="M 253.714844 105.027344 L 238.03125 91.882812 C 237.761719 91.65625 237.707031 91.265625 237.90625 90.976562 L 256.757812 63.242188 C 256.957031 62.945312 257.355469 62.855469 257.664062 63.039062 L 258.703125 63.652344 L 260.789062 64.917969 L 275.820312 73.71875 L 277.777344 75.015625 C 278.101562 75.230469 278.179688 75.671875 277.949219 75.984375 L 255.882812 106.082031 C 255.636719 106.417969 255.148438 106.457031 254.855469 106.164062 Z M 253.714844 105.027344 " fill-opacity="1" fill-rule="nonzero"/><path fill="#ffccba" d="M 270.65625 76.148438 L 258.097656 68.347656 L 258.457031 67.769531 L 271.015625 75.570312 Z M 268.144531 79.035156 L 255.585938 71.175781 L 255.945312 70.601562 L 268.503906 78.457031 Z M 265.945312 82.175781 L 253.386719 74.320312 L 253.75 73.742188 L 266.304688 81.601562 Z M 265.945312 82.175781 " fill-opacity="1" fill-rule="evenodd"/><path fill="#fe8d00" d="M 256.707031 70.886719 L 260.789062 64.917969 L 258.703125 63.652344 L 254.824219 69.484375 L 256.261719 69.484375 Z M 256.707031 70.886719 " fill-opacity="1" fill-rule="nonzero"/><path fill="#ffccba" d="M 253.714844 105.027344 L 275.820312 73.71875 L 277.777344 75.015625 C 278.101562 75.230469 278.179688 75.671875 277.949219 75.984375 L 255.882812 106.082031 C 255.636719 106.417969 255.148438 106.457031 254.855469 106.164062 Z M 253.714844 105.027344 " fill-opacity="1" fill-rule="nonzero"/><path fill="#ffc600" d="M 211.765625 206.710938 L 65.703125 206.710938 C 65.328125 206.710938 65.023438 207.015625 65.023438 207.390625 L 65.023438 208.414062 C 65.023438 208.789062 65.328125 209.09375 65.703125 209.09375 L 69.78125 209.09375 L 69.78125 238 L 65.703125 238 C 65.328125 238 65.023438 238.304688 65.023438 238.679688 L 65.023438 240.042969 C 65.023438 240.417969 65.328125 240.722656 65.703125 240.722656 L 211.765625 240.722656 C 221.148438 240.722656 228.75 233.109375 228.75 223.714844 C 228.75 214.324219 221.148438 206.710938 211.765625 206.710938 Z M 211.765625 206.710938 " fill-opacity="1" fill-rule="nonzero"/><path fill="#f99d23" d="M 164.550781 206.710938 L 167.949219 206.710938 C 175.527344 216.75 175.578125 230.722656 167.949219 240.722656 L 164.550781 240.722656 C 172.339844 230.777344 172.289062 216.695312 164.550781 206.710938 Z M 164.550781 206.710938 " fill-opacity="1" fill-rule="nonzero"/><path fill="#f99d23" d="M 172.703125 206.710938 L 176.101562 206.710938 C 183.679688 216.75 183.730469 230.722656 176.101562 240.722656 L 172.703125 240.722656 C 180.492188 230.777344 180.441406 216.695312 172.703125 206.710938 Z M 172.703125 206.710938 " fill-opacity="1" fill-rule="nonzero"/><path fill="#f99d23" d="M 207.351562 206.710938 L 210.746094 206.710938 C 218.328125 216.75 218.375 230.722656 210.746094 240.722656 L 207.351562 240.722656 C 215.136719 230.777344 215.089844 216.695312 207.351562 206.710938 Z M 207.351562 206.710938 " fill-opacity="1" fill-rule="nonzero"/><path fill="#f99d23" d="M 65.703125 206.710938 L 141.113281 206.710938 C 150.492188 206.710938 158.097656 214.324219 158.097656 223.714844 C 158.097656 233.109375 150.492188 240.722656 141.113281 240.722656 L 65.703125 240.722656 C 65.328125 240.722656 65.023438 240.417969 65.023438 240.042969 L 65.023438 238.679688 C 65.023438 238.304688 65.328125 238 65.703125 238 L 69.78125 238 L 69.78125 209.09375 L 65.703125 209.09375 C 65.328125 209.09375 65.023438 208.789062 65.023438 208.414062 L 65.023438 207.390625 C 65.023438 207.015625 65.328125 206.710938 65.703125 206.710938 Z M 65.703125 206.710938 " fill-opacity="1" fill-rule="nonzero"/><path fill="#ffffff" d="M 155.039062 223.546875 C 155.039062 215.5625 148.574219 209.09375 140.601562 209.09375 L 69.777344 209.09375 L 69.777344 238 L 140.601562 238 C 148.574219 238 155.039062 231.53125 155.039062 223.546875 Z M 155.039062 223.546875 " fill-opacity="1" fill-rule="nonzero"/><path fill="#f4f4f4" d="M 69.777344 214.875 L 139.414062 214.875 C 139.789062 214.875 140.09375 214.570312 140.09375 214.195312 C 140.09375 213.820312 139.789062 213.515625 139.414062 213.515625 L 69.777344 213.515625 Z M 69.777344 214.875 " fill-opacity="1" fill-rule="nonzero"/><path fill="#f4f4f4" d="M 69.777344 220.996094 L 139.414062 220.996094 C 139.789062 220.996094 140.09375 220.691406 140.09375 220.316406 C 140.09375 219.941406 139.789062 219.636719 139.414062 219.636719 L 69.777344 219.636719 Z M 69.777344 220.996094 " fill-opacity="1" fill-rule="nonzero"/><path fill="#f4f4f4" d="M 69.777344 227.796875 L 139.414062 227.796875 C 139.789062 227.796875 140.09375 227.492188 140.09375 227.117188 C 140.09375 226.742188 139.789062 226.4375 139.414062 226.4375 L 69.777344 226.4375 Z M 69.777344 227.796875 " fill-opacity="1" fill-rule="nonzero"/><path fill="#f4f4f4" d="M 69.777344 233.917969 L 139.414062 233.917969 C 139.789062 233.917969 140.09375 233.613281 140.09375 233.238281 C 140.09375 232.863281 139.789062 232.558594 139.414062 232.558594 L 69.777344 232.558594 Z M 69.777344 233.917969 " fill-opacity="1" fill-rule="nonzero"/><path fill="#d5e3ff" d="M 229.429688 240.722656 L 58.230469 240.722656 C 57.855469 240.722656 57.550781 241.027344 57.550781 241.402344 L 57.550781 242.761719 C 57.550781 243.136719 57.855469 243.441406 58.230469 243.441406 L 59.25 243.441406 L 59.25 252.625 L 58.230469 252.625 C 57.855469 252.625 57.550781 252.929688 57.550781 253.304688 L 57.550781 254.324219 C 57.550781 254.699219 57.855469 255.003906 58.230469 255.003906 L 229.429688 255.003906 C 233.371094 255.003906 236.5625 251.808594 236.5625 247.863281 C 236.5625 243.917969 233.371094 240.722656 229.429688 240.722656 Z M 229.429688 240.722656 " fill-opacity="1" fill-rule="nonzero"/><path fill="#a1bafc" d="M 58.230469 240.722656 L 113.9375 240.722656 C 117.878906 240.722656 121.070312 243.917969 121.070312 247.863281 C 121.070312 251.808594 117.878906 255.003906 113.9375 255.003906 L 58.230469 255.003906 C 57.855469 255.003906 57.550781 254.699219 57.550781 254.324219 L 57.550781 253.304688 C 57.550781 252.929688 57.855469 252.625 58.230469 252.625 L 59.25 252.625 L 59.25 243.441406 L 58.230469 243.441406 C 57.855469 243.441406 57.550781 243.136719 57.550781 242.761719 L 57.550781 241.402344 C 57.550781 241.027344 57.855469 240.722656 58.230469 240.722656 Z M 58.230469 240.722656 " fill-opacity="1" fill-rule="nonzero"/><path fill="#ffffff" d="M 59.25 243.441406 L 113.429688 243.441406 C 115.960938 243.441406 118.015625 245.496094 118.015625 248.035156 C 118.015625 250.570312 115.960938 252.625 113.429688 252.625 L 59.25 252.625 Z M 59.25 243.441406 " fill-opacity="1" fill-rule="nonzero"/><path fill="#a1bafc" d="M 225.015625 244.804688 C 225.015625 244.425781 224.710938 244.121094 224.335938 244.121094 L 133.300781 244.121094 C 132.925781 244.121094 132.621094 244.425781 132.621094 244.804688 L 132.621094 250.242188 C 132.621094 250.621094 132.925781 250.925781 133.300781 250.925781 L 224.335938 250.925781 C 224.710938 250.925781 225.015625 250.621094 225.015625 250.242188 Z M 225.015625 244.804688 " fill-opacity="1" fill-rule="nonzero"/><path fill="#ffccba" d="M 82.007812 255.003906 L 228.070312 255.003906 C 228.445312 255.003906 228.75 255.308594 228.75 255.683594 L 228.75 256.707031 C 228.75 257.082031 228.445312 257.386719 228.070312 257.386719 L 223.996094 257.386719 L 223.996094 286.292969 L 228.070312 286.292969 C 228.445312 286.292969 228.75 286.597656 228.75 286.972656 L 228.75 288.332031 C 228.75 288.710938 228.445312 289.015625 228.070312 289.015625 L 82.007812 289.015625 C 72.628906 289.015625 65.023438 281.402344 65.023438 272.011719 C 65.023438 262.617188 72.628906 255.003906 82.007812 255.003906 Z M 82.007812 255.003906 " fill-opacity="1" fill-rule="nonzero"/><path fill="#fe8d00" d="M 129.222656 255.003906 L 125.828125 255.003906 C 118.246094 265.039062 118.199219 279.015625 125.828125 289.015625 L 129.222656 289.015625 C 121.4375 279.070312 121.484375 264.988281 129.222656 255.003906 Z M 129.222656 255.003906 " fill-opacity="1" fill-rule="nonzero"/><path fill="#fe8d00" d="M 121.070312 255.003906 L 117.675781 255.003906 C 110.097656 265.039062 110.046875 279.015625 117.675781 289.015625 L 121.070312 289.015625 C 113.285156 279.070312 113.332031 264.988281 121.070312 255.003906 Z M 121.070312 255.003906 " fill-opacity="1" fill-rule="nonzero"/><path fill="#fe8d00" d="M 86.425781 255.003906 L 83.027344 255.003906 C 75.449219 265.039062 75.398438 279.015625 83.027344 289.015625 L 86.425781 289.015625 C 78.636719 279.070312 78.6875 264.988281 86.425781 255.003906 Z M 86.425781 255.003906 " fill-opacity="1" fill-rule="nonzero"/><path fill="#fe8d00" d="M 228.070312 255.003906 L 152.660156 255.003906 C 143.28125 255.003906 135.679688 262.617188 135.679688 272.011719 C 135.679688 281.402344 143.28125 289.015625 152.660156 289.015625 L 228.070312 289.015625 C 228.445312 289.015625 228.75 288.710938 228.75 288.332031 L 228.75 286.972656 C 228.75 286.597656 228.445312 286.292969 228.070312 286.292969 L 223.996094 286.292969 L 223.996094 257.386719 L 228.070312 257.386719 C 228.445312 257.386719 228.75 257.082031 228.75 256.707031 L 228.75 255.683594 C 228.75 255.308594 228.445312 255.003906 228.070312 255.003906 Z M 228.070312 255.003906 " fill-opacity="1" fill-rule="nonzero"/><path fill="#ffffff" d="M 138.734375 271.839844 C 138.734375 263.855469 145.199219 257.386719 153.171875 257.386719 L 223.996094 257.386719 L 223.996094 286.292969 L 153.171875 286.292969 C 145.199219 286.292969 138.734375 279.824219 138.734375 271.839844 Z M 138.734375 271.839844 " fill-opacity="1" fill-rule="nonzero"/><path fill="#f4f4f4" d="M 223.996094 263.167969 L 154.363281 263.167969 C 153.988281 263.167969 153.683594 262.863281 153.683594 262.488281 C 153.683594 262.113281 153.988281 261.808594 154.363281 261.808594 L 223.996094 261.808594 Z M 223.996094 263.167969 " fill-opacity="1" fill-rule="nonzero"/><path fill="#f4f4f4" d="M 223.996094 269.289062 L 154.363281 269.289062 C 153.988281 269.289062 153.683594 268.984375 153.683594 268.609375 C 153.683594 268.234375 153.988281 267.929688 154.363281 267.929688 L 223.996094 267.929688 Z M 223.996094 269.289062 " fill-opacity="1" fill-rule="nonzero"/><path fill="#f4f4f4" d="M 223.996094 276.089844 L 154.363281 276.089844 C 153.988281 276.089844 153.683594 275.785156 153.683594 275.410156 C 153.683594 275.035156 153.988281 274.730469 154.363281 274.730469 L 223.996094 274.730469 Z M 223.996094 276.089844 " fill-opacity="1" fill-rule="nonzero"/><path fill="#f4f4f4" d="M 223.996094 282.210938 L 154.363281 282.210938 C 153.988281 282.210938 153.683594 281.90625 153.683594 281.53125 C 153.683594 281.15625 153.988281 280.851562 154.363281 280.851562 L 223.996094 280.851562 Z M 223.996094 282.210938 " fill-opacity="1" fill-rule="nonzero"/><path fill="#fe8d00" d="M 57.765625 62.257812 L 91.609375 81.132812 L 91.609375 82.25 C 91.609375 82.59375 91.351562 82.886719 91.007812 82.925781 L 68.796875 85.472656 L 67.96875 94.988281 C 67.949219 95.214844 67.820312 95.417969 67.617188 95.519531 C 58.15625 100.378906 39.875 96.632812 32.46875 87.902344 C 32.308594 87.714844 32.269531 87.453125 32.363281 87.222656 L 36.085938 77.9375 L 15.984375 64.273438 C 15.675781 64.0625 15.59375 63.644531 15.800781 63.332031 L 16.289062 62.601562 L 57.425781 62.171875 C 57.546875 62.171875 57.664062 62.203125 57.765625 62.257812 Z M 57.765625 62.257812 " fill-opacity="1" fill-rule="nonzero"/><path fill="#ffccba" d="M 50.945312 85.734375 L 16.289062 62.601562 L 57.429688 62.171875 C 57.546875 62.171875 57.664062 62.203125 57.765625 62.257812 L 91.609375 81.132812 L 51.402344 85.84375 C 51.242188 85.859375 51.078125 85.824219 50.945312 85.734375 Z M 50.945312 85.734375 " fill-opacity="1" fill-rule="nonzero"/><path fill="#ffccba" d="M 49.875 87.3125 L 36.089844 77.9375 L 32.363281 87.222656 C 32.269531 87.453125 32.308594 87.714844 32.46875 87.902344 C 39.875 96.632812 58.160156 100.378906 67.617188 95.519531 C 67.820312 95.417969 67.949219 95.214844 67.96875 94.988281 L 68.796875 85.472656 L 50.792969 87.539062 C 50.46875 87.574219 50.144531 87.496094 49.875 87.3125 Z M 49.875 87.3125 " fill-opacity="1" fill-rule="nonzero"/><path fill="#fe8d00" d="M 21.230469 88.1875 C 21.097656 88.539062 20.953125 88.902344 20.800781 89.292969 C 20.363281 90.417969 20.371094 91.664062 20.75 92.808594 C 20.914062 93.296875 21.371094 93.628906 21.886719 93.628906 L 23.570312 93.628906 C 23.769531 93.628906 23.890625 93.40625 23.777344 93.242188 C 22.914062 91.941406 23.015625 90.222656 24.027344 89.03125 C 24.566406 88.394531 25.167969 87.6875 25.765625 86.976562 C 26.597656 85.984375 26.933594 84.742188 26.601562 83.488281 C 26.484375 83.054688 26.363281 82.617188 26.265625 82.261719 C 26.214844 82.089844 26.238281 81.90625 26.324219 81.75 L 29.566406 75.839844 C 30.402344 74.320312 32 73.375 33.734375 73.375 L 53.308594 73.375 C 53.542969 73.375 53.734375 73.183594 53.734375 72.949219 C 53.734375 72.710938 53.539062 72.515625 53.300781 72.519531 L 32.878906 72.894531 C 31.144531 72.925781 29.5625 73.902344 28.753906 75.445312 L 25.386719 81.878906 C 25.347656 81.957031 25.296875 82.023438 25.230469 82.078125 L 24.335938 82.863281 C 22.777344 84.226562 21.953125 86.242188 21.230469 88.1875 Z M 21.230469 88.1875 " fill-opacity="1" fill-rule="nonzero"/><path fill="#fe8d00" d="M 56.746094 72.945312 C 56.746094 73.421875 55.78125 73.804688 54.59375 73.804688 C 53.40625 73.804688 52.441406 73.421875 52.441406 72.945312 C 52.441406 72.46875 53.40625 72.082031 54.59375 72.082031 C 55.78125 72.082031 56.746094 72.46875 56.746094 72.945312 Z M 56.746094 72.945312 " fill-opacity="1" fill-rule="nonzero"/><path fill="#65c688" d="M 34.710938 265.121094 C 34.867188 273.527344 41.46875 277.96875 42.367188 289.261719 L 50.34375 289.261719 L 49.347656 274.269531 C 49.347656 267.625 45.75 266.839844 45.386719 257.792969 C 45.371094 257.351562 45.292969 256.910156 45.152344 256.492188 C 44.988281 255.992188 44.734375 255.523438 44.394531 255.117188 C 43.449219 253.976562 41.828125 253.574219 40.601562 252.75 C 39.515625 252.019531 38.769531 250.75 38.425781 249.898438 C 38.394531 249.820312 38.382812 249.738281 38.378906 249.65625 C 38.375 248.683594 38.230469 244.292969 35.375 241.0625 C 33.730469 239.207031 31.109375 239.03125 28.640625 238.875 C 27.882812 238.828125 27.128906 238.722656 26.492188 238.515625 C 26.132812 238.398438 25.800781 238.078125 25.503906 237.84375 C 24.25 236.851562 20.378906 234.652344 17.167969 233.984375 C 16.066406 233.753906 14.957031 234.132812 14.035156 234.78125 C 11.945312 236.25 11.59375 238.796875 13.996094 239.648438 C 15.882812 240.316406 18.167969 240.8125 20.011719 241.265625 C 21.164062 241.546875 21.933594 242.59375 21.933594 243.78125 C 21.933594 244.570312 21.449219 249.15625 25.265625 252.160156 C 25.367188 252.238281 25.453125 252.335938 25.527344 252.441406 C 26.953125 254.457031 31.421875 254.855469 33.878906 259.609375 C 34.746094 261.28125 34.675781 263.238281 34.710938 265.121094 Z M 34.710938 265.121094 " fill-opacity="1" fill-rule="nonzero"/><path fill="#007d41" d="M 21.644531 238.601562 C 21.746094 238.445312 21.953125 238.394531 22.113281 238.496094 C 30.925781 244.050781 36.816406 253.878906 40.503906 263.71875 C 44.191406 273.558594 45.695312 283.472656 45.695312 289.261719 L 45.019531 289.261719 C 45.019531 283.558594 43.53125 273.730469 39.867188 263.957031 C 36.203125 254.179688 30.382812 244.511719 21.75 239.070312 C 21.59375 238.972656 21.542969 238.761719 21.644531 238.601562 Z M 21.644531 238.601562 " fill-opacity="1" fill-rule="evenodd"/><g clip-path="url(#91501592a2)"><path fill="#65c688" d="M 19.792969 277.972656 C 22.601562 287.535156 29.015625 284.527344 32.320312 289.261719 L 44.28125 289.261719 L 44.058594 286.265625 L 41.511719 281.191406 C 40.730469 279.632812 40.820312 277.804688 40.523438 276.089844 C 39.777344 271.796875 33.195312 270.746094 30.328125 268.773438 L 25.222656 265.359375 C 23.65625 264.3125 21.902344 263.496094 20.015625 263.476562 C 12.976562 263.402344 3.230469 267.699219 2.921875 278.246094 C 2.910156 278.5625 3.089844 278.855469 3.375 278.996094 C 3.695312 279.15625 4.078125 279.089844 4.355469 278.863281 C 5.921875 277.597656 7.988281 277.265625 8.894531 277.265625 C 11.820312 277.265625 14.746094 275.511719 17.675781 275.828125 C 18.765625 275.945312 19.484375 276.917969 19.792969 277.972656 Z M 19.792969 277.972656 " fill-opacity="1" fill-rule="nonzero"/></g><path fill="#007d41" d="M 34.316406 277.855469 C 36.546875 280.601562 37.957031 284.332031 37.957031 289.261719 L 38.636719 289.261719 C 38.636719 284.195312 37.183594 280.308594 34.84375 277.425781 C 32.5 274.550781 29.292969 272.707031 25.816406 271.695312 C 18.882812 269.671875 10.804688 270.925781 6.21875 273.984375 C 6.0625 274.089844 6.019531 274.300781 6.125 274.457031 C 6.230469 274.613281 6.441406 274.65625 6.597656 274.550781 C 10.996094 271.617188 18.863281 270.371094 25.628906 272.347656 C 29 273.332031 32.078125 275.109375 34.316406 277.855469 Z M 34.316406 277.855469 " fill-opacity="1" fill-rule="evenodd"/><path fill="#f7aa8c" d="M 145.585938 117.519531 C 144.976562 117.390625 144.402344 117.152344 143.871094 116.800781 C 142.917969 116.160156 142.242188 114.582031 141.808594 112.59375 C 141.167969 109.617188 141.074219 105.71875 141.421875 102.667969 C 145.1875 103.003906 150.828125 100.648438 153.476562 99.371094 C 153.441406 102.144531 154.515625 105.386719 155.054688 106.660156 C 155.90625 105.914062 158.082031 104.292969 159.253906 106.511719 C 160.488281 108.863281 158.453125 111.90625 155.917969 112.410156 C 155.796875 112.976562 155.96875 117.796875 156.953125 121.941406 C 149.675781 128.253906 145.199219 124.722656 144.496094 122.515625 C 144.550781 122.183594 144.515625 121.496094 144.515625 121.496094 C 144.710938 120.023438 145.539062 119.136719 145.585938 117.519531 Z M 145.585938 117.519531 " fill-opacity="1" fill-rule="nonzero"/><path fill="#8c1a00" d="M 143.871094 116.800781 C 144.398438 117.152344 144.972656 117.390625 145.585938 117.519531 C 148.488281 118.121094 152.238281 116.222656 155.917969 112.410156 C 158.453125 111.90625 160.488281 108.863281 159.25 106.511719 C 158.082031 104.292969 155.90625 105.914062 155.050781 106.660156 C 154.511719 105.386719 153.441406 102.144531 153.472656 99.371094 C 150.828125 100.648438 145.1875 103.003906 141.421875 102.667969 C 141.152344 102.644531 140.894531 102.605469 140.644531 102.550781 C 140.339844 99.847656 139.507812 95.019531 143.289062 93.378906 C 146.976562 91.777344 156.238281 91.269531 160.707031 96.390625 C 163.792969 99.929688 159.960938 107.832031 163.851562 117.226562 C 162.796875 118.574219 160.246094 120.761719 156.585938 121.839844 C 154.808594 115.554688 155.5625 113.320312 155.917969 112.410156 C 152.238281 116.222656 148.488281 118.121094 145.585938 117.519531 C 145.558594 117.972656 145.320312 120.117188 145.199219 121.179688 L 142.433594 121.460938 C 141.96875 118.636719 141.8125 115.429688 141.808594 112.59375 C 142.238281 114.582031 142.914062 116.15625 143.871094 116.800781 Z M 143.871094 116.800781 " fill-opacity="1" fill-rule="nonzero"/><path fill="#3a3683" d="M 104.710938 91.078125 L 112.238281 100.082031 L 126.6875 101.882812 L 122.265625 125.46875 L 110.222656 128.769531 L 104.710938 120.667969 Z M 104.710938 91.078125 " fill-opacity="1" fill-rule="nonzero"/><path fill="#6c64f5" d="M 112.234375 100.082031 L 105.5625 92.097656 L 108.460938 92.097656 C 109.828125 93.800781 112.625 97.609375 112.898438 99.242188 L 122.449219 101.355469 Z M 112.234375 100.082031 " fill-opacity="1" fill-rule="nonzero"/><path fill="#f7aa8c" d="M 114.1875 111.472656 C 114.902344 113.371094 110.386719 119.054688 113 121.660156 C 113.789062 122.449219 114.3125 123.441406 114.644531 124.449219 L 109.078125 126.109375 C 108.808594 125.128906 108.332031 124.207031 107.535156 123.558594 C 104.921875 121.425781 105.160156 117.871094 104.445312 115.027344 C 103.734375 112.183594 100.882812 110.050781 101.832031 109.578125 C 102.59375 109.199219 104.527344 111.15625 105.398438 112.183594 C 105.398438 110.761719 105.398438 104.367188 106.824219 105.078125 C 107.957031 105.640625 107.777344 109.832031 107.539062 111.902344 C 107.792969 109.753906 109.207031 105.558594 110.148438 106.5 C 110.863281 107.210938 110.148438 109.578125 109.910156 111.238281 C 109.722656 112.5625 109.992188 116.210938 110.148438 117.871094 C 110.863281 115.265625 113.714844 110.21875 114.1875 111.472656 Z M 114.1875 111.472656 " fill-opacity="1" fill-rule="nonzero"/><path fill="#6c64f5" d="M 194.824219 162.484375 C 196.527344 152.964844 190.386719 137.320312 183.566406 129.15625 C 179.992188 124.882812 170.171875 122.21875 161.679688 120.828125 C 157.585938 127.019531 147.964844 135.628906 142.234375 120.511719 C 132 123.386719 125.179688 127.128906 122.84375 144.121094 C 121.804688 140.042969 120.265625 126.175781 119.722656 125.089844 C 115.628906 123.386719 108.464844 125.777344 104.03125 128.488281 C 108.804688 166.929688 117.375 168.4375 122.84375 165.21875 C 126.886719 162.835938 131.019531 159.246094 133.945312 154.144531 C 133.851562 162.394531 133.023438 169.289062 130.636719 171.328125 C 128.25 173.367188 130.636719 175.238281 129.957031 175.75 C 126.132812 178.605469 126.203125 180.171875 128.929688 180.511719 L 128.964844 180.523438 C 135.347656 183.023438 149.777344 188.675781 166.507812 183.230469 C 168.484375 182.589844 177.425781 185.292969 179.472656 184.589844 C 182.148438 183.675781 180.152344 182.210938 180.152344 180.851562 L 180.402344 178.726562 C 183.851562 176.074219 187.703125 173.003906 190.574219 169.824219 C 192.8125 168.265625 194.289062 165.984375 194.824219 162.484375 Z M 194.824219 162.484375 " fill-opacity="1" fill-rule="nonzero"/><path fill="#3a3683" d="M 134.285156 154.148438 C 134.351562 148.339844 133.746094 141.738281 132.332031 135.542969 L 131.671875 135.695312 C 133.070312 141.832031 133.671875 148.378906 133.605469 154.140625 Z M 124.144531 149.515625 L 123.175781 144.0625 L 122.507812 144.179688 L 123.476562 149.632812 Z M 124.144531 149.515625 " fill-opacity="1" fill-rule="evenodd"/><path fill="#3a3683" d="M 174.246094 138.140625 L 173.578125 138.261719 L 176.578125 154.765625 C 172.980469 155.699219 170.53125 156.746094 168.582031 157.664062 C 168.171875 157.855469 167.785156 158.042969 167.417969 158.222656 C 165.984375 158.914062 164.828125 159.472656 163.5625 159.792969 L 163.726562 160.449219 C 165.066406 160.117188 166.300781 159.519531 167.746094 158.820312 C 168.105469 158.644531 168.480469 158.464844 168.871094 158.28125 C 170.847656 157.347656 173.339844 156.285156 177.050781 155.34375 L 177.359375 155.265625 Z M 174.976562 173.429688 C 172.097656 173.785156 168.980469 174.167969 165.699219 174.738281 L 165.816406 175.410156 C 169.082031 174.839844 172.175781 174.457031 175.054688 174.105469 C 175.597656 174.039062 176.132812 173.972656 176.65625 173.90625 C 179.972656 173.492188 182.976562 173.070312 185.554688 172.375 C 188.132812 171.675781 190.316406 170.695312 191.964844 169.136719 C 193.621094 167.574219 194.710938 165.453125 195.160156 162.539062 L 194.488281 162.433594 C 194.058594 165.226562 193.027344 167.199219 191.496094 168.640625 C 189.960938 170.089844 187.902344 171.035156 185.378906 171.71875 C 182.851562 172.402344 179.890625 172.816406 176.570312 173.230469 C 176.050781 173.296875 175.515625 173.363281 174.976562 173.429688 Z M 174.976562 173.429688 " fill-opacity="1" fill-rule="evenodd"/><path fill="#3a3683" d="M 142.234375 120.511719 C 147.96875 135.628906 157.585938 127.019531 161.679688 120.828125 C 160.296875 120.601562 157.972656 120.15625 156.648438 119.984375 C 150.167969 129.519531 146.328125 123.714844 145.125 120 C 144.355469 120.105469 142.867188 120.40625 142.234375 120.511719 Z M 142.234375 120.511719 " fill-opacity="1" fill-rule="nonzero"/><path fill="#8c1a00" d="M 151.074219 207.164062 C 131.222656 214.191406 127.09375 214.945312 120.5 214.363281 C 120.960938 213.671875 122.082031 211.796875 122.535156 211.160156 C 123.640625 209.601562 124.707031 208.25 125.75 207.070312 C 126.695312 205.511719 127.507812 203.945312 128 202.554688 C 129.183594 201.132812 132.953125 197.800781 139.40625 194.46875 C 139.503906 195.59375 139.101562 197.027344 139.152344 197.574219 C 138.894531 202.1875 145.777344 205.683594 151.074219 207.164062 Z M 151.074219 207.164062 " fill-opacity="1" fill-rule="nonzero"/><path fill="#f7aa8c" d="M 139.40625 194.46875 C 132.953125 197.800781 129.183594 201.132812 128 202.554688 C 129.984375 199.300781 131.046875 193.820312 137.054688 190.617188 L 142.4375 191.675781 C 141.140625 192.636719 140.144531 193.570312 139.40625 194.46875 Z M 139.40625 194.46875 " fill-opacity="1" fill-rule="nonzero"/><path fill="#3a3683" d="M 154.632812 165.175781 L 154.632812 155.039062 C 154.632812 155.988281 151.726562 156.757812 148.136719 156.757812 C 144.550781 156.757812 141.640625 155.988281 141.640625 155.039062 L 141.640625 165.175781 C 141.640625 168.769531 144.550781 171.679688 148.136719 171.679688 C 151.726562 171.679688 154.632812 168.769531 154.632812 165.175781 Z M 154.632812 165.175781 " fill-opacity="1" fill-rule="nonzero"/><path fill="#3a3683" d="M 148.136719 156.757812 C 151.726562 156.757812 154.632812 155.988281 154.632812 155.039062 C 154.632812 154.085938 151.726562 153.316406 148.136719 153.316406 C 144.550781 153.316406 141.640625 154.085938 141.640625 155.039062 C 141.640625 155.988281 144.550781 156.757812 148.136719 156.757812 Z M 148.136719 156.757812 " fill-opacity="1" fill-rule="nonzero"/><path fill="#6c64f5" d="M 148.136719 155.992188 C 151.09375 155.992188 153.488281 155.566406 153.488281 155.039062 C 153.488281 154.507812 151.09375 154.082031 148.136719 154.082031 C 145.183594 154.082031 142.789062 154.507812 142.789062 155.039062 C 142.789062 155.566406 145.183594 155.992188 148.136719 155.992188 Z M 148.136719 155.992188 " fill-opacity="1" fill-rule="nonzero"/><path fill="#f7aa8c" d="M 154.902344 156.296875 C 156.140625 157.539062 158.617188 157.289062 160.351562 160.761719 C 160.757812 161.574219 160.875 162.605469 160.8125 163.714844 L 166.03125 162.238281 C 166.726562 163.246094 167.949219 166.308594 167.277344 170.511719 L 158.617188 171.175781 C 156.140625 172.914062 155.347656 169.191406 154.902344 168.945312 C 154.457031 168.695312 149.207031 167.703125 149.453125 166.960938 C 149.699219 166.21875 154.902344 166.464844 155.347656 166.464844 C 155.183594 166.191406 154.832031 165.914062 154.160156 165.722656 C 152.425781 165.226562 149.207031 164.480469 149.453125 163.488281 C 149.652344 162.695312 153.167969 163.488281 154.902344 163.984375 L 153.664062 162.496094 C 151.929688 161.753906 149.207031 160.761719 149.453125 160.019531 C 149.699219 159.273438 152.425781 159.769531 153.664062 160.019531 C 154.652344 160.214844 155.890625 161.589844 156.386719 162.25 C 156.636719 161.753906 156.882812 160.265625 155.148438 159.027344 C 153.414062 157.785156 153.664062 155.058594 154.902344 156.296875 Z M 154.902344 156.296875 " fill-opacity="1" fill-rule="nonzero"/><path fill="#3a3683" d="M 152.21875 158.660156 L 151.070312 158.523438 L 151.304688 156.554688 L 152.453125 156.6875 C 154.695312 156.953125 156.390625 158.859375 156.390625 161.121094 L 156.390625 166.265625 C 156.390625 168.851562 154.023438 170.792969 151.488281 170.285156 L 151.878906 168.339844 C 153.1875 168.601562 154.40625 167.601562 154.40625 166.265625 L 154.40625 161.121094 C 154.40625 159.863281 153.46875 158.804688 152.21875 158.660156 Z M 152.21875 158.660156 " fill-opacity="1" fill-rule="evenodd"/><path fill="#8c1a00" d="M 151.316406 207.707031 C 131.546875 214.734375 127.441406 215.488281 120.871094 214.90625 C 121.332031 214.214844 122.449219 212.339844 122.898438 211.703125 C 124 210.144531 125.0625 208.792969 126.101562 207.613281 C 127.042969 206.054688 127.851562 204.488281 128.339844 203.09375 C 129.519531 201.675781 133.269531 198.34375 139.699219 195.011719 C 139.796875 196.136719 139.394531 197.570312 139.445312 198.117188 C 139.1875 202.730469 146.039062 206.226562 151.316406 207.707031 Z M 151.316406 207.707031 " fill-opacity="1" fill-rule="nonzero"/><path fill="#3a3683" d="M 208.375 181.296875 C 220.894531 203.574219 192.960938 218.8125 149.433594 208.308594 C 147.089844 210.234375 145.351562 208.273438 144.777344 207.054688 C 141.742188 210.046875 138.011719 203.878906 139.003906 198.644531 C 139.070312 197.449219 138.601562 196.355469 139.695312 195.007812 C 133.265625 198.335938 129.515625 201.671875 128.335938 203.089844 C 127.847656 204.484375 127.039062 206.050781 126.097656 207.609375 C 125.058594 208.789062 123.992188 210.140625 122.894531 211.699219 C 119.921875 211.070312 119.191406 209.898438 119.359375 208.800781 C 84.121094 201.132812 79.105469 187.148438 86.824219 177.105469 C 93.808594 168.023438 127.507812 175.90625 156.273438 184.550781 C 177.601562 174.429688 201.148438 168.429688 208.375 181.296875 Z M 208.375 181.296875 " fill-opacity="1" fill-rule="nonzero"/><path fill="#8a86d3" d="M 94.335938 182.675781 C 94.347656 182.582031 94.433594 182.515625 94.527344 182.527344 C 105.273438 183.84375 114.398438 185.644531 120.835938 187.117188 C 124.058594 187.855469 126.605469 188.511719 128.351562 188.980469 C 129.222656 189.214844 129.894531 189.40625 130.347656 189.535156 C 130.574219 189.601562 130.746094 189.652344 130.859375 189.6875 C 130.917969 189.703125 130.960938 189.714844 130.992188 189.726562 L 131.003906 189.726562 C 131.882812 189.636719 133.238281 189.664062 134.492188 189.859375 C 135.128906 189.957031 135.746094 190.097656 136.269531 190.289062 C 136.785156 190.480469 137.226562 190.730469 137.488281 191.050781 C 137.546875 191.125 137.535156 191.230469 137.464844 191.289062 C 137.390625 191.347656 137.285156 191.339844 137.222656 191.265625 C 137.019531 191.015625 136.648438 190.792969 136.152344 190.609375 C 135.65625 190.429688 135.0625 190.292969 134.441406 190.195312 C 133.191406 190.003906 131.847656 189.976562 131.003906 190.070312 L 130.96875 190.074219 L 130.9375 190.0625 L 130.984375 189.902344 C 130.9375 190.0625 130.9375 190.0625 130.9375 190.0625 L 130.925781 190.058594 L 130.894531 190.050781 C 130.863281 190.042969 130.820312 190.027344 130.765625 190.011719 C 130.648438 189.976562 130.476562 189.925781 130.253906 189.863281 C 129.800781 189.730469 129.132812 189.542969 128.261719 189.308594 C 126.523438 188.839844 123.976562 188.1875 120.761719 187.449219 C 114.332031 185.976562 105.214844 184.179688 94.484375 182.863281 C 94.390625 182.855469 94.324219 182.769531 94.335938 182.675781 Z M 182.164062 178.125 C 182.1875 178.214844 182.132812 178.308594 182.042969 178.332031 C 177.523438 179.546875 153.988281 188.199219 142.777344 192.375 C 142.6875 192.410156 142.589844 192.363281 142.558594 192.277344 C 142.527344 192.1875 142.570312 192.089844 142.660156 192.058594 C 153.859375 187.882812 177.414062 179.222656 181.957031 178.003906 C 182.046875 177.980469 182.140625 178.035156 182.164062 178.125 Z M 182.164062 178.125 " fill-opacity="1" fill-rule="evenodd"/><path fill="#8a86d3" d="M 97.320312 193.816406 C 103.484375 197.90625 110.960938 201.230469 117.742188 203.65625 C 119.152344 198.554688 122.316406 192.554688 128.355469 189.160156 C 128.925781 189.3125 129.40625 189.445312 129.792969 189.554688 C 123.425781 192.675781 120.136719 198.769531 118.707031 204 C 121.589844 205.003906 124.324219 205.84375 126.746094 206.507812 C 126.578125 206.808594 126.402344 207.113281 126.21875 207.417969 C 123.863281 206.769531 121.226562 205.957031 118.453125 204.992188 C 118.160156 206.246094 117.976562 207.429688 117.882812 208.472656 C 117.546875 208.398438 117.214844 208.320312 116.882812 208.242188 C 116.988281 207.148438 117.183594 205.933594 117.488281 204.648438 C 110.636719 202.203125 103.039062 198.835938 96.757812 194.667969 C 91.117188 190.925781 86.464844 186.488281 84.417969 181.425781 C 84.582031 180.960938 84.777344 180.5 84.996094 180.042969 C 86.679688 185.214844 91.34375 189.847656 97.320312 193.816406 Z M 97.320312 193.816406 " fill-opacity="1" fill-rule="nonzero"/><path fill="#8a86d3" d="M 194.558594 202.734375 C 183.085938 206.738281 166.621094 207.609375 149.453125 206.238281 C 150.105469 207.21875 150.707031 208.054688 151.21875 208.734375 L 151.175781 208.722656 C 150.683594 208.613281 150.1875 208.496094 149.691406 208.378906 C 149.21875 207.71875 148.707031 206.96875 148.164062 206.132812 C 145.453125 205.898438 142.722656 205.609375 139.996094 205.269531 C 139.816406 204.925781 139.65625 204.5625 139.515625 204.179688 C 142.171875 204.519531 144.832031 204.808594 147.476562 205.046875 C 145.546875 201.933594 143.355469 197.847656 141.535156 193.160156 C 141.792969 192.9375 142.070312 192.710938 142.367188 192.484375 C 144.308594 197.566406 146.710938 201.953125 148.75 205.15625 C 166.152344 206.613281 182.773438 205.765625 194.222656 201.769531 C 199.972656 199.765625 204.359375 196.984375 206.90625 193.359375 C 208.90625 190.511719 209.800781 187.101562 209.28125 183.046875 C 209.742188 184.015625 210.125 184.96875 210.433594 185.90625 C 210.316406 188.933594 209.382812 191.609375 207.738281 193.949219 C 205.019531 197.816406 200.410156 200.691406 194.558594 202.734375 Z M 194.558594 202.734375 " fill-opacity="1" fill-rule="nonzero"/><path fill="#f7aa8c" d="M 139.699219 195.011719 C 133.273438 198.34375 129.519531 201.675781 128.34375 203.09375 C 130.316406 199.84375 131.375 194.363281 137.355469 191.160156 L 142.71875 192.21875 C 141.421875 193.179688 140.433594 194.109375 139.699219 195.011719 Z M 139.699219 195.011719 " fill-opacity="1" fill-rule="nonzero"/><g fill="#000000" fill-opacity="1"><g transform="translate(173.493276, 101.924166)"><g><path d="M 1.109375 -6.765625 L 1.8125 -6.765625 L 1.8125 -0.625 L 5.609375 -0.625 L 5.609375 0 L 1.109375 0 Z M 1.109375 -6.765625 "/></g></g></g><g fill="#000000" fill-opacity="1"><g transform="translate(179.189678, 101.924166)"><g><path d="M 5.390625 -2.328125 L 1.125 -2.328125 C 1.164062 -1.796875 1.367188 -1.367188 1.734375 -1.046875 C 2.109375 -0.722656 2.578125 -0.5625 3.140625 -0.5625 C 3.453125 -0.5625 3.738281 -0.617188 4 -0.734375 C 4.269531 -0.847656 4.5 -1.015625 4.6875 -1.234375 L 5.078125 -0.78125 C 4.847656 -0.507812 4.5625 -0.300781 4.21875 -0.15625 C 3.882812 -0.0195312 3.515625 0.046875 3.109375 0.046875 C 2.585938 0.046875 2.125 -0.0625 1.71875 -0.28125 C 1.320312 -0.507812 1.007812 -0.816406 0.78125 -1.203125 C 0.550781 -1.597656 0.4375 -2.046875 0.4375 -2.546875 C 0.4375 -3.035156 0.546875 -3.476562 0.765625 -3.875 C 0.984375 -4.269531 1.28125 -4.578125 1.65625 -4.796875 C 2.03125 -5.015625 2.457031 -5.125 2.9375 -5.125 C 3.40625 -5.125 3.828125 -5.015625 4.203125 -4.796875 C 4.578125 -4.578125 4.867188 -4.269531 5.078125 -3.875 C 5.285156 -3.488281 5.390625 -3.046875 5.390625 -2.546875 Z M 2.9375 -4.53125 C 2.445312 -4.53125 2.035156 -4.375 1.703125 -4.0625 C 1.367188 -3.75 1.175781 -3.34375 1.125 -2.84375 L 4.734375 -2.84375 C 4.691406 -3.34375 4.503906 -3.75 4.171875 -4.0625 C 3.835938 -4.375 3.425781 -4.53125 2.9375 -4.53125 Z M 2.9375 -4.53125 "/></g></g></g><g fill="#000000" fill-opacity="1"><g transform="translate(185.031149, 101.924166)"><g><path d="M 2.734375 -5.125 C 3.398438 -5.125 3.910156 -4.957031 4.265625 -4.625 C 4.617188 -4.289062 4.796875 -3.800781 4.796875 -3.15625 L 4.796875 0 L 4.140625 0 L 4.140625 -0.796875 C 3.984375 -0.523438 3.753906 -0.316406 3.453125 -0.171875 C 3.160156 -0.0234375 2.804688 0.046875 2.390625 0.046875 C 1.816406 0.046875 1.363281 -0.0859375 1.03125 -0.359375 C 0.695312 -0.628906 0.53125 -0.988281 0.53125 -1.4375 C 0.53125 -1.863281 0.6875 -2.207031 1 -2.46875 C 1.3125 -2.738281 1.8125 -2.875 2.5 -2.875 L 4.109375 -2.875 L 4.109375 -3.1875 C 4.109375 -3.625 3.984375 -3.957031 3.734375 -4.1875 C 3.492188 -4.414062 3.140625 -4.53125 2.671875 -4.53125 C 2.347656 -4.53125 2.035156 -4.472656 1.734375 -4.359375 C 1.441406 -4.253906 1.191406 -4.109375 0.984375 -3.921875 L 0.671875 -4.4375 C 0.921875 -4.65625 1.226562 -4.820312 1.59375 -4.9375 C 1.957031 -5.0625 2.335938 -5.125 2.734375 -5.125 Z M 2.5 -0.5 C 2.882812 -0.5 3.210938 -0.585938 3.484375 -0.765625 C 3.765625 -0.941406 3.972656 -1.195312 4.109375 -1.53125 L 4.109375 -2.359375 L 2.515625 -2.359375 C 1.640625 -2.359375 1.203125 -2.054688 1.203125 -1.453125 C 1.203125 -1.148438 1.316406 -0.914062 1.546875 -0.75 C 1.773438 -0.582031 2.09375 -0.5 2.5 -0.5 Z M 2.5 -0.5 "/></g></g></g><g fill="#000000" fill-opacity="1"><g transform="translate(190.737223, 101.924166)"><g><path d="M 1.609375 -4.09375 C 1.773438 -4.4375 2.015625 -4.691406 2.328125 -4.859375 C 2.648438 -5.035156 3.046875 -5.125 3.515625 -5.125 L 3.515625 -4.453125 L 3.359375 -4.46875 C 2.816406 -4.46875 2.394531 -4.300781 2.09375 -3.96875 C 1.789062 -3.644531 1.640625 -3.1875 1.640625 -2.59375 L 1.640625 0 L 0.953125 0 L 0.953125 -5.09375 L 1.609375 -5.09375 Z M 1.609375 -4.09375 "/></g></g></g><g fill="#000000" fill-opacity="1"><g transform="translate(194.615419, 101.924166)"><g><path d="M 3.546875 -5.125 C 4.179688 -5.125 4.6875 -4.9375 5.0625 -4.5625 C 5.445312 -4.195312 5.640625 -3.660156 5.640625 -2.953125 L 5.640625 0 L 4.953125 0 L 4.953125 -2.875 C 4.953125 -3.40625 4.816406 -3.804688 4.546875 -4.078125 C 4.285156 -4.359375 3.910156 -4.5 3.421875 -4.5 C 2.878906 -4.5 2.445312 -4.335938 2.125 -4.015625 C 1.800781 -3.691406 1.640625 -3.242188 1.640625 -2.671875 L 1.640625 0 L 0.953125 0 L 0.953125 -5.09375 L 1.609375 -5.09375 L 1.609375 -4.15625 C 1.796875 -4.457031 2.054688 -4.691406 2.390625 -4.859375 C 2.722656 -5.035156 3.109375 -5.125 3.546875 -5.125 Z M 3.546875 -5.125 "/></g></g><g transform="translate(201.162898, 101.924166)"><g><path d="M 0.953125 -5.09375 L 1.640625 -5.09375 L 1.640625 0 L 0.953125 0 Z M 1.296875 -6.203125 C 1.160156 -6.203125 1.039062 -6.25 0.9375 -6.34375 C 0.84375 -6.4375 0.796875 -6.550781 0.796875 -6.6875 C 0.796875 -6.820312 0.84375 -6.9375 0.9375 -7.03125 C 1.039062 -7.125 1.160156 -7.171875 1.296875 -7.171875 C 1.441406 -7.171875 1.5625 -7.125 1.65625 -7.03125 C 1.75 -6.9375 1.796875 -6.828125 1.796875 -6.703125 C 1.796875 -6.554688 1.75 -6.4375 1.65625 -6.34375 C 1.5625 -6.25 1.441406 -6.203125 1.296875 -6.203125 Z M 1.296875 -6.203125 "/></g></g></g><g fill="#000000" fill-opacity="1"><g transform="translate(203.764481, 101.924166)"><g><path d="M 3.546875 -5.125 C 4.179688 -5.125 4.6875 -4.9375 5.0625 -4.5625 C 5.445312 -4.195312 5.640625 -3.660156 5.640625 -2.953125 L 5.640625 0 L 4.953125 0 L 4.953125 -2.875 C 4.953125 -3.40625 4.816406 -3.804688 4.546875 -4.078125 C 4.285156 -4.359375 3.910156 -4.5 3.421875 -4.5 C 2.878906 -4.5 2.445312 -4.335938 2.125 -4.015625 C 1.800781 -3.691406 1.640625 -3.242188 1.640625 -2.671875 L 1.640625 0 L 0.953125 0 L 0.953125 -5.09375 L 1.609375 -5.09375 L 1.609375 -4.15625 C 1.796875 -4.457031 2.054688 -4.691406 2.390625 -4.859375 C 2.722656 -5.035156 3.109375 -5.125 3.546875 -5.125 Z M 3.546875 -5.125 "/></g></g><g transform="translate(210.31196, 101.924166)"><g><path d="M 5.671875 -5.09375 L 5.671875 -0.625 C 5.671875 0.238281 5.457031 0.878906 5.03125 1.296875 C 4.613281 1.710938 3.976562 1.921875 3.125 1.921875 C 2.65625 1.921875 2.207031 1.851562 1.78125 1.71875 C 1.363281 1.582031 1.019531 1.390625 0.75 1.140625 L 1.109375 0.625 C 1.347656 0.84375 1.644531 1.007812 2 1.125 C 2.351562 1.25 2.722656 1.3125 3.109375 1.3125 C 3.753906 1.3125 4.226562 1.160156 4.53125 0.859375 C 4.832031 0.566406 4.984375 0.101562 4.984375 -0.53125 L 4.984375 -1.1875 C 4.765625 -0.863281 4.484375 -0.613281 4.140625 -0.4375 C 3.796875 -0.269531 3.414062 -0.1875 3 -0.1875 C 2.519531 -0.1875 2.082031 -0.289062 1.6875 -0.5 C 1.300781 -0.71875 0.992188 -1.015625 0.765625 -1.390625 C 0.546875 -1.765625 0.4375 -2.191406 0.4375 -2.671875 C 0.4375 -3.148438 0.546875 -3.570312 0.765625 -3.9375 C 0.992188 -4.3125 1.300781 -4.601562 1.6875 -4.8125 C 2.070312 -5.019531 2.507812 -5.125 3 -5.125 C 3.425781 -5.125 3.8125 -5.035156 4.15625 -4.859375 C 4.507812 -4.691406 4.796875 -4.441406 5.015625 -4.109375 L 5.015625 -5.09375 Z M 3.0625 -0.796875 C 3.4375 -0.796875 3.769531 -0.875 4.0625 -1.03125 C 4.351562 -1.195312 4.582031 -1.421875 4.75 -1.703125 C 4.914062 -1.984375 5 -2.304688 5 -2.671875 C 5 -3.035156 4.914062 -3.351562 4.75 -3.625 C 4.582031 -3.90625 4.351562 -4.125 4.0625 -4.28125 C 3.769531 -4.445312 3.4375 -4.53125 3.0625 -4.53125 C 2.695312 -4.53125 2.367188 -4.453125 2.078125 -4.296875 C 1.785156 -4.140625 1.554688 -3.921875 1.390625 -3.640625 C 1.222656 -3.359375 1.140625 -3.035156 1.140625 -2.671875 C 1.140625 -2.304688 1.222656 -1.984375 1.390625 -1.703125 C 1.554688 -1.421875 1.785156 -1.195312 2.078125 -1.03125 C 2.367188 -0.875 2.695312 -0.796875 3.0625 -0.796875 Z M 3.0625 -0.796875 "/></g></g><g transform="translate(216.946481, 101.924166)"><g/></g><g transform="translate(219.480365, 101.924166)"><g><path d="M 3.578125 -5.125 C 4.054688 -5.125 4.488281 -5.015625 4.875 -4.796875 C 5.257812 -4.585938 5.5625 -4.285156 5.78125 -3.890625 C 6 -3.492188 6.109375 -3.046875 6.109375 -2.546875 C 6.109375 -2.046875 6 -1.597656 5.78125 -1.203125 C 5.5625 -0.804688 5.257812 -0.5 4.875 -0.28125 C 4.488281 -0.0625 4.054688 0.046875 3.578125 0.046875 C 3.148438 0.046875 2.765625 -0.0390625 2.421875 -0.21875 C 2.085938 -0.40625 1.816406 -0.664062 1.609375 -1 L 1.609375 0 L 0.953125 0 L 0.953125 -7.171875 L 1.640625 -7.171875 L 1.640625 -4.125 C 1.859375 -4.445312 2.128906 -4.691406 2.453125 -4.859375 C 2.785156 -5.035156 3.160156 -5.125 3.578125 -5.125 Z M 3.53125 -0.5625 C 3.882812 -0.5625 4.207031 -0.640625 4.5 -0.796875 C 4.789062 -0.960938 5.015625 -1.195312 5.171875 -1.5 C 5.335938 -1.8125 5.421875 -2.160156 5.421875 -2.546875 C 5.421875 -2.929688 5.335938 -3.273438 5.171875 -3.578125 C 5.015625 -3.878906 4.789062 -4.113281 4.5 -4.28125 C 4.207031 -4.445312 3.882812 -4.53125 3.53125 -4.53125 C 3.164062 -4.53125 2.835938 -4.445312 2.546875 -4.28125 C 2.265625 -4.113281 2.039062 -3.878906 1.875 -3.578125 C 1.71875 -3.273438 1.640625 -2.929688 1.640625 -2.546875 C 1.640625 -2.160156 1.71875 -1.8125 1.875 -1.5 C 2.039062 -1.195312 2.265625 -0.960938 2.546875 -0.796875 C 2.835938 -0.640625 3.164062 -0.5625 3.53125 -0.5625 Z M 3.53125 -0.5625 "/></g></g></g><g fill="#000000" fill-opacity="1"><g transform="translate(226.037518, 101.924166)"><g><path d="M 5.234375 -5.09375 L 2.6875 0.609375 C 2.476562 1.085938 2.238281 1.425781 1.96875 1.625 C 1.695312 1.820312 1.375 1.921875 1 1.921875 C 0.75 1.921875 0.515625 1.878906 0.296875 1.796875 C 0.0859375 1.722656 -0.0859375 1.609375 -0.234375 1.453125 L 0.078125 0.953125 C 0.335938 1.203125 0.644531 1.328125 1 1.328125 C 1.238281 1.328125 1.4375 1.265625 1.59375 1.140625 C 1.757812 1.015625 1.914062 0.796875 2.0625 0.484375 L 2.28125 -0.015625 L 0.015625 -5.09375 L 0.71875 -5.09375 L 2.640625 -0.765625 L 4.5625 -5.09375 Z M 5.234375 -5.09375 "/></g></g></g><g fill="#000000" fill-opacity="1"><g transform="translate(188.183741, 115.394924)"><g><path d="M 5.59375 -7.171875 L 5.59375 0 L 4.9375 0 L 4.9375 -1 C 4.738281 -0.664062 4.46875 -0.40625 4.125 -0.21875 C 3.789062 -0.0390625 3.410156 0.046875 2.984375 0.046875 C 2.503906 0.046875 2.070312 -0.0625 1.6875 -0.28125 C 1.300781 -0.5 0.992188 -0.804688 0.765625 -1.203125 C 0.546875 -1.597656 0.4375 -2.046875 0.4375 -2.546875 C 0.4375 -3.046875 0.546875 -3.492188 0.765625 -3.890625 C 0.992188 -4.285156 1.300781 -4.585938 1.6875 -4.796875 C 2.070312 -5.015625 2.503906 -5.125 2.984375 -5.125 C 3.390625 -5.125 3.757812 -5.035156 4.09375 -4.859375 C 4.425781 -4.691406 4.695312 -4.445312 4.90625 -4.125 L 4.90625 -7.171875 Z M 3.03125 -0.5625 C 3.382812 -0.5625 3.707031 -0.640625 4 -0.796875 C 4.289062 -0.960938 4.515625 -1.195312 4.671875 -1.5 C 4.835938 -1.8125 4.921875 -2.160156 4.921875 -2.546875 C 4.921875 -2.929688 4.835938 -3.273438 4.671875 -3.578125 C 4.515625 -3.878906 4.289062 -4.113281 4 -4.28125 C 3.707031 -4.445312 3.382812 -4.53125 3.03125 -4.53125 C 2.675781 -4.53125 2.351562 -4.445312 2.0625 -4.28125 C 1.78125 -4.113281 1.554688 -3.878906 1.390625 -3.578125 C 1.222656 -3.273438 1.140625 -2.929688 1.140625 -2.546875 C 1.140625 -2.160156 1.222656 -1.8125 1.390625 -1.5 C 1.554688 -1.195312 1.78125 -0.960938 2.0625 -0.796875 C 2.351562 -0.640625 2.675781 -0.5625 3.03125 -0.5625 Z M 3.03125 -0.5625 "/></g></g><g transform="translate(194.740892, 115.394924)"><g><path d="M 3.03125 0.046875 C 2.539062 0.046875 2.097656 -0.0625 1.703125 -0.28125 C 1.316406 -0.507812 1.007812 -0.816406 0.78125 -1.203125 C 0.550781 -1.597656 0.4375 -2.046875 0.4375 -2.546875 C 0.4375 -3.035156 0.550781 -3.476562 0.78125 -3.875 C 1.007812 -4.269531 1.316406 -4.578125 1.703125 -4.796875 C 2.097656 -5.015625 2.539062 -5.125 3.03125 -5.125 C 3.519531 -5.125 3.960938 -5.015625 4.359375 -4.796875 C 4.753906 -4.578125 5.0625 -4.269531 5.28125 -3.875 C 5.507812 -3.476562 5.625 -3.035156 5.625 -2.546875 C 5.625 -2.046875 5.507812 -1.597656 5.28125 -1.203125 C 5.0625 -0.816406 4.753906 -0.507812 4.359375 -0.28125 C 3.960938 -0.0625 3.519531 0.046875 3.03125 0.046875 Z M 3.03125 -0.5625 C 3.394531 -0.5625 3.71875 -0.640625 4 -0.796875 C 4.289062 -0.960938 4.515625 -1.195312 4.671875 -1.5 C 4.835938 -1.8125 4.921875 -2.160156 4.921875 -2.546875 C 4.921875 -2.929688 4.835938 -3.273438 4.671875 -3.578125 C 4.515625 -3.878906 4.289062 -4.113281 4 -4.28125 C 3.71875 -4.445312 3.394531 -4.53125 3.03125 -4.53125 C 2.675781 -4.53125 2.351562 -4.445312 2.0625 -4.28125 C 1.78125 -4.113281 1.554688 -3.878906 1.390625 -3.578125 C 1.222656 -3.273438 1.140625 -2.929688 1.140625 -2.546875 C 1.140625 -2.160156 1.222656 -1.8125 1.390625 -1.5 C 1.554688 -1.195312 1.78125 -0.960938 2.0625 -0.796875 C 2.351562 -0.640625 2.675781 -0.5625 3.03125 -0.5625 Z M 3.03125 -0.5625 "/></g></g><g transform="translate(200.804805, 115.394924)"><g><path d="M 0.953125 -5.09375 L 1.640625 -5.09375 L 1.640625 0 L 0.953125 0 Z M 1.296875 -6.203125 C 1.160156 -6.203125 1.039062 -6.25 0.9375 -6.34375 C 0.84375 -6.4375 0.796875 -6.550781 0.796875 -6.6875 C 0.796875 -6.820312 0.84375 -6.9375 0.9375 -7.03125 C 1.039062 -7.125 1.160156 -7.171875 1.296875 -7.171875 C 1.441406 -7.171875 1.5625 -7.125 1.65625 -7.03125 C 1.75 -6.9375 1.796875 -6.828125 1.796875 -6.703125 C 1.796875 -6.554688 1.75 -6.4375 1.65625 -6.34375 C 1.5625 -6.25 1.441406 -6.203125 1.296875 -6.203125 Z M 1.296875 -6.203125 "/></g></g></g><g fill="#000000" fill-opacity="1"><g transform="translate(203.406388, 115.394924)"><g><path d="M 3.546875 -5.125 C 4.179688 -5.125 4.6875 -4.9375 5.0625 -4.5625 C 5.445312 -4.195312 5.640625 -3.660156 5.640625 -2.953125 L 5.640625 0 L 4.953125 0 L 4.953125 -2.875 C 4.953125 -3.40625 4.816406 -3.804688 4.546875 -4.078125 C 4.285156 -4.359375 3.910156 -4.5 3.421875 -4.5 C 2.878906 -4.5 2.445312 -4.335938 2.125 -4.015625 C 1.800781 -3.691406 1.640625 -3.242188 1.640625 -2.671875 L 1.640625 0 L 0.953125 0 L 0.953125 -5.09375 L 1.609375 -5.09375 L 1.609375 -4.15625 C 1.796875 -4.457031 2.054688 -4.691406 2.390625 -4.859375 C 2.722656 -5.035156 3.109375 -5.125 3.546875 -5.125 Z M 3.546875 -5.125 "/></g></g><g transform="translate(209.953867, 115.394924)"><g><path d="M 5.671875 -5.09375 L 5.671875 -0.625 C 5.671875 0.238281 5.457031 0.878906 5.03125 1.296875 C 4.613281 1.710938 3.976562 1.921875 3.125 1.921875 C 2.65625 1.921875 2.207031 1.851562 1.78125 1.71875 C 1.363281 1.582031 1.019531 1.390625 0.75 1.140625 L 1.109375 0.625 C 1.347656 0.84375 1.644531 1.007812 2 1.125 C 2.351562 1.25 2.722656 1.3125 3.109375 1.3125 C 3.753906 1.3125 4.226562 1.160156 4.53125 0.859375 C 4.832031 0.566406 4.984375 0.101562 4.984375 -0.53125 L 4.984375 -1.1875 C 4.765625 -0.863281 4.484375 -0.613281 4.140625 -0.4375 C 3.796875 -0.269531 3.414062 -0.1875 3 -0.1875 C 2.519531 -0.1875 2.082031 -0.289062 1.6875 -0.5 C 1.300781 -0.71875 0.992188 -1.015625 0.765625 -1.390625 C 0.546875 -1.765625 0.4375 -2.191406 0.4375 -2.671875 C 0.4375 -3.148438 0.546875 -3.570312 0.765625 -3.9375 C 0.992188 -4.3125 1.300781 -4.601562 1.6875 -4.8125 C 2.070312 -5.019531 2.507812 -5.125 3 -5.125 C 3.425781 -5.125 3.8125 -5.035156 4.15625 -4.859375 C 4.507812 -4.691406 4.796875 -4.441406 5.015625 -4.109375 L 5.015625 -5.09375 Z M 3.0625 -0.796875 C 3.4375 -0.796875 3.769531 -0.875 4.0625 -1.03125 C 4.351562 -1.195312 4.582031 -1.421875 4.75 -1.703125 C 4.914062 -1.984375 5 -2.304688 5 -2.671875 C 5 -3.035156 4.914062 -3.351562 4.75 -3.625 C 4.582031 -3.90625 4.351562 -4.125 4.0625 -4.28125 C 3.769531 -4.445312 3.4375 -4.53125 3.0625 -4.53125 C 2.695312 -4.53125 2.367188 -4.453125 2.078125 -4.296875 C 1.785156 -4.140625 1.554688 -3.921875 1.390625 -3.640625 C 1.222656 -3.359375 1.140625 -3.035156 1.140625 -2.671875 C 1.140625 -2.304688 1.222656 -1.984375 1.390625 -1.703125 C 1.554688 -1.421875 1.785156 -1.195312 2.078125 -1.03125 C 2.367188 -0.875 2.695312 -0.796875 3.0625 -0.796875 Z M 3.0625 -0.796875 "/></g></g></g></svg>