<?xml version="1.0" standalone="no"?>
<!DOCTYPE svg PUBLIC "-//W3C//DTD SVG 20010904//EN"
 "http://www.w3.org/TR/2001/REC-SVG-20010904/DTD/svg10.dtd">
<svg version="1.0" xmlns="http://www.w3.org/2000/svg"
 width="499.000000pt" height="310.000000pt" viewBox="0 0 499.000000 310.000000"
 preserveAspectRatio="xMidYMid meet">

<g transform="translate(0.000000,310.000000) scale(0.100000,-0.100000)"
fill="#000000" stroke="none">
<path d="M0 1875 l0 -1225 1235 0 1235 0 0 1225 0 1225 -1235 0 -1235 0 0
-1225z m1348 520 c121 -29 203 -89 249 -183 26 -52 28 -66 28 -172 0 -105 -3
-120 -28 -171 -32 -66 -100 -132 -163 -160 l-44 -20 32 -47 c17 -26 71 -103
118 -172 47 -69 90 -131 94 -137 5 -10 -10 -13 -66 -13 l-73 1 -109 169 -108
170 -184 0 -184 0 0 -170 0 -170 -60 0 -60 0 0 545 0 545 248 0 c183 0 263 -4
310 -15z"/>
<path d="M910 2041 l0 -251 188 0 c204 0 253 8 322 54 100 66 119 256 34 354
-60 70 -114 84 -346 90 l-198 4 0 -251z"/>
</g>
</svg>
