<svg xmlns="http://www.w3.org/2000/svg" xmlns:xlink="http://www.w3.org/1999/xlink" width="390" zoomAndPan="magnify" viewBox="0 0 292.5 292.5" height="390" preserveAspectRatio="xMidYMid meet" version="1.0"><defs><g/><clipPath id="eda22a3487"><path d="M 0 0 L 292 0 L 292 292 L 0 292 Z M 0 0 " clip-rule="nonzero"/></clipPath><clipPath id="0b857a2186"><path d="M 248.199219 204.402344 C 240.445312 204.402344 233.164062 206.433594 226.835938 209.984375 L 214.074219 192.964844 C 223.3125 179.613281 228.734375 163.429688 228.734375 146 C 228.734375 128.667969 223.371094 112.566406 214.226562 99.257812 L 229.902344 83.582031 C 235.476562 86.152344 241.671875 87.601562 248.199219 87.601562 C 272.351562 87.601562 292 67.953125 292 43.800781 C 292 19.648438 272.351562 0 248.199219 0 C 224.050781 0 204.402344 19.648438 204.402344 43.800781 C 204.402344 57.839844 211.046875 70.347656 221.351562 78.367188 L 208.203125 91.515625 C 193.027344 74.210938 170.769531 63.265625 146 63.265625 C 121.230469 63.265625 98.972656 74.210938 83.796875 91.515625 L 70.648438 78.367188 C 80.953125 70.347656 87.601562 57.839844 87.601562 43.800781 C 87.601562 19.648438 67.953125 0 43.800781 0 C 19.648438 0 0 19.648438 0 43.800781 C 0 67.953125 19.648438 87.601562 43.800781 87.601562 C 50.328125 87.601562 56.523438 86.152344 62.097656 83.582031 L 77.773438 99.257812 C 68.628906 112.566406 63.265625 128.667969 63.265625 146 C 63.265625 163.429688 68.6875 179.613281 77.925781 192.964844 L 65.164062 209.984375 C 58.839844 206.433594 51.554688 204.402344 43.800781 204.402344 C 19.648438 204.402344 0 224.050781 0 248.199219 C 0 272.351562 19.648438 292 43.800781 292 C 67.953125 292 87.601562 272.351562 87.601562 248.199219 C 87.601562 235.292969 81.988281 223.675781 73.078125 215.65625 L 84.152344 200.886719 C 99.320312 217.957031 121.421875 228.734375 146 228.734375 C 170.578125 228.734375 192.683594 217.957031 207.847656 200.886719 L 218.925781 215.65625 C 210.015625 223.675781 204.402344 235.292969 204.402344 248.199219 C 204.402344 272.351562 224.050781 292 248.199219 292 C 272.351562 292 292 272.351562 292 248.199219 C 292 224.050781 272.351562 204.402344 248.199219 204.402344 Z M 233.601562 74.574219 L 233.601562 68.132812 C 233.601562 60.082031 240.152344 53.535156 248.199219 53.535156 C 256.25 53.535156 262.800781 60.082031 262.800781 68.132812 L 262.800781 74.574219 C 258.371094 76.683594 253.421875 77.867188 248.199219 77.867188 C 242.976562 77.867188 238.027344 76.683594 233.601562 74.574219 Z M 238.46875 34.066406 C 238.46875 28.699219 242.835938 24.332031 248.199219 24.332031 C 253.566406 24.332031 257.933594 28.699219 257.933594 34.066406 C 257.933594 39.433594 253.566406 43.800781 248.199219 43.800781 C 242.835938 43.800781 238.46875 39.433594 238.46875 34.066406 Z M 214.132812 43.800781 C 214.132812 25.015625 229.417969 9.734375 248.199219 9.734375 C 266.984375 9.734375 282.265625 25.015625 282.265625 43.800781 C 282.265625 53.066406 278.542969 61.476562 272.519531 67.625 C 272.351562 59.453125 268.144531 52.257812 261.808594 47.96875 C 265.421875 44.433594 267.667969 39.507812 267.667969 34.066406 C 267.667969 23.332031 258.933594 14.601562 248.199219 14.601562 C 237.464844 14.601562 228.734375 23.332031 228.734375 34.066406 C 228.734375 39.507812 230.980469 44.433594 234.59375 47.96875 C 228.257812 52.257812 224.050781 59.453125 223.878906 67.625 C 217.855469 61.476562 214.132812 53.066406 214.132812 43.800781 Z M 9.734375 43.800781 C 9.734375 25.015625 25.015625 9.734375 43.800781 9.734375 C 62.585938 9.734375 77.867188 25.015625 77.867188 43.800781 C 77.867188 53.066406 74.144531 61.476562 68.121094 67.625 C 67.949219 59.453125 63.742188 52.257812 57.40625 47.96875 C 61.019531 44.433594 63.265625 39.507812 63.265625 34.066406 C 63.265625 23.332031 54.535156 14.601562 43.800781 14.601562 C 33.066406 14.601562 24.332031 23.332031 24.332031 34.066406 C 24.332031 39.507812 26.582031 44.433594 30.191406 47.96875 C 23.859375 52.257812 19.648438 59.453125 19.480469 67.625 C 13.457031 61.476562 9.734375 53.066406 9.734375 43.800781 Z M 34.066406 34.066406 C 34.066406 28.699219 38.433594 24.332031 43.800781 24.332031 C 49.167969 24.332031 53.535156 28.699219 53.535156 34.066406 C 53.535156 39.433594 49.167969 43.800781 43.800781 43.800781 C 38.433594 43.800781 34.066406 39.433594 34.066406 34.066406 Z M 29.199219 74.574219 L 29.199219 68.132812 C 29.199219 60.082031 35.75 53.535156 43.800781 53.535156 C 51.851562 53.535156 58.398438 60.082031 58.398438 68.132812 L 58.398438 74.574219 C 53.972656 76.683594 49.023438 77.867188 43.800781 77.867188 C 38.578125 77.867188 33.628906 76.683594 29.199219 74.574219 Z M 29.199219 278.972656 L 29.199219 272.535156 C 29.199219 264.484375 35.75 257.933594 43.800781 257.933594 C 51.851562 257.933594 58.398438 264.484375 58.398438 272.535156 L 58.398438 278.972656 C 53.972656 281.082031 49.023438 282.265625 43.800781 282.265625 C 38.578125 282.265625 33.628906 281.082031 29.199219 278.972656 Z M 34.066406 238.46875 C 34.066406 233.101562 38.433594 228.734375 43.800781 228.734375 C 49.167969 228.734375 53.535156 233.101562 53.535156 238.46875 C 53.535156 243.835938 49.167969 248.199219 43.800781 248.199219 C 38.433594 248.199219 34.066406 243.835938 34.066406 238.46875 Z M 77.867188 248.199219 C 77.867188 257.46875 74.144531 265.875 68.121094 272.023438 C 67.949219 263.855469 63.742188 256.660156 57.40625 252.371094 C 61.019531 248.835938 63.265625 243.910156 63.265625 238.46875 C 63.265625 227.734375 54.535156 219 43.800781 219 C 33.066406 219 24.332031 227.734375 24.332031 238.46875 C 24.332031 243.910156 26.582031 248.835938 30.191406 252.371094 C 23.859375 256.660156 19.648438 263.855469 19.480469 272.023438 C 13.457031 265.875 9.734375 257.46875 9.734375 248.199219 C 9.734375 229.414062 25.015625 214.132812 43.800781 214.132812 C 62.585938 214.132812 77.867188 229.414062 77.867188 248.199219 Z M 73.167969 150.867188 L 87.710938 150.867188 C 88.175781 162.367188 90.289062 173.429688 93.886719 183.492188 C 90.988281 184.515625 88.191406 185.628906 85.515625 186.828125 C 78.472656 176.429688 74.042969 164.125 73.167969 150.867188 Z M 85.515625 105.171875 C 88.191406 106.375 90.988281 107.484375 93.886719 108.507812 C 90.289062 118.570312 88.175781 129.632812 87.710938 141.132812 L 73.167969 141.132812 C 74.042969 127.875 78.472656 115.570312 85.515625 105.171875 Z M 218.835938 141.132812 L 204.292969 141.132812 C 203.824219 129.632812 201.710938 118.570312 198.117188 108.507812 C 201.011719 107.484375 203.8125 106.375 206.488281 105.171875 C 213.527344 115.570312 217.957031 127.875 218.835938 141.132812 Z M 194.546875 141.132812 L 170.292969 141.132812 C 170.15625 132.167969 169.648438 123.476562 168.796875 115.34375 C 175.769531 114.4375 182.488281 113.121094 188.832031 111.410156 C 192.136719 120.523438 194.085938 130.605469 194.546875 141.132812 Z M 146 219 C 145.957031 219 141.378906 217.574219 136.957031 199.878906 C 135.851562 195.460938 134.902344 190.578125 134.113281 185.347656 C 138.015625 185.078125 141.984375 184.933594 146 184.933594 C 150.015625 184.933594 153.984375 185.078125 157.886719 185.347656 C 157.101562 190.578125 156.148438 195.460938 155.042969 199.878906 C 150.621094 217.574219 146.042969 219 146 219 Z M 146 175.199219 C 141.574219 175.199219 137.195312 175.363281 132.886719 175.675781 C 132.066406 167.878906 131.578125 159.515625 131.441406 150.867188 L 160.558594 150.867188 C 160.425781 159.515625 159.9375 167.878906 159.117188 175.675781 C 154.808594 175.363281 150.429688 175.199219 146 175.199219 Z M 131.441406 141.132812 C 131.578125 132.484375 132.066406 124.125 132.882812 116.324219 C 137.195312 116.636719 141.574219 116.800781 146 116.800781 C 150.429688 116.800781 154.808594 116.636719 159.117188 116.324219 C 159.933594 124.125 160.425781 132.484375 160.558594 141.132812 Z M 146 73 C 146.042969 73 150.621094 74.425781 155.042969 92.121094 C 156.148438 96.542969 157.101562 101.425781 157.890625 106.65625 C 153.988281 106.925781 150.015625 107.066406 146 107.066406 C 141.984375 107.066406 138.015625 106.925781 134.113281 106.652344 C 134.902344 101.421875 135.851562 96.539062 136.957031 92.121094 C 141.378906 74.425781 145.957031 73 146 73 Z M 167.578125 105.683594 C 166.730469 99.957031 165.699219 94.601562 164.488281 89.761719 C 163.144531 84.382812 161.628906 79.824219 159.945312 76.078125 C 167.324219 79.410156 174.132812 85.394531 179.84375 93.699219 C 181.710938 96.414062 183.410156 99.316406 184.941406 102.363281 C 179.433594 103.789062 173.613281 104.898438 167.578125 105.683594 Z M 132.054688 76.074219 C 130.375 79.824219 128.859375 84.382812 127.515625 89.757812 C 126.304688 94.601562 125.269531 99.957031 124.421875 105.6875 C 118.386719 104.902344 112.566406 103.792969 107.058594 102.363281 C 108.589844 99.316406 110.289062 96.414062 112.15625 93.695312 C 117.867188 85.394531 124.675781 79.410156 132.054688 76.074219 Z M 123.203125 115.34375 C 122.351562 123.476562 121.84375 132.167969 121.707031 141.132812 L 97.453125 141.132812 C 97.914062 130.605469 99.867188 120.519531 103.171875 111.40625 C 109.511719 113.121094 116.230469 114.4375 123.203125 115.34375 Z M 97.453125 150.867188 L 121.707031 150.867188 C 121.84375 159.832031 122.351562 168.523438 123.203125 176.65625 C 116.230469 177.5625 109.511719 178.878906 103.171875 180.59375 C 99.867188 171.480469 97.914062 161.394531 97.453125 150.867188 Z M 124.421875 186.308594 C 125.269531 192.042969 126.304688 197.398438 127.515625 202.242188 C 128.859375 207.625 130.378906 212.179688 132.0625 215.929688 C 124.683594 212.59375 117.867188 206.609375 112.15625 198.304688 C 110.289062 195.585938 108.589844 192.683594 107.058594 189.632812 C 112.566406 188.207031 118.382812 187.09375 124.421875 186.308594 Z M 159.941406 215.925781 C 161.625 212.179688 163.140625 207.621094 164.488281 202.242188 C 165.699219 197.394531 166.730469 192.042969 167.582031 186.308594 C 173.617188 187.09375 179.433594 188.207031 184.945312 189.632812 C 183.410156 192.683594 181.710938 195.585938 179.84375 198.304688 C 174.132812 206.609375 167.320312 212.59375 159.941406 215.925781 Z M 168.796875 176.65625 C 169.648438 168.523438 170.15625 159.832031 170.292969 150.867188 L 194.546875 150.867188 C 194.085938 161.394531 192.136719 171.480469 188.832031 180.59375 C 182.488281 178.878906 175.769531 177.5625 168.796875 176.65625 Z M 204.292969 150.867188 L 218.835938 150.867188 C 217.957031 164.125 213.527344 176.429688 206.488281 186.828125 C 203.8125 185.625 201.011719 184.515625 198.117188 183.492188 C 201.710938 173.429688 203.824219 162.367188 204.292969 150.867188 Z M 200.28125 97.242188 C 198.367188 98.046875 196.402344 98.804688 194.371094 99.515625 C 192.453125 95.511719 190.289062 91.710938 187.863281 88.183594 C 186.949219 86.855469 186.011719 85.578125 185.046875 84.347656 C 190.695312 87.9375 195.820312 92.285156 200.28125 97.242188 Z M 106.964844 84.339844 C 106 85.574219 105.054688 86.851562 104.136719 88.183594 C 101.710938 91.707031 99.550781 95.507812 97.632812 99.507812 C 95.605469 98.796875 93.632812 98.042969 91.722656 97.238281 C 96.183594 92.28125 101.3125 87.933594 106.964844 84.339844 Z M 91.710938 194.75 C 93.621094 193.945312 95.597656 193.195312 97.628906 192.484375 C 99.546875 196.488281 101.710938 200.289062 104.136719 203.816406 C 105.050781 205.148438 105.996094 206.425781 106.960938 207.660156 C 101.304688 204.0625 96.175781 199.710938 91.710938 194.75 Z M 185.042969 207.65625 C 186.007812 206.425781 186.949219 205.148438 187.863281 203.816406 C 190.289062 200.289062 192.457031 196.488281 194.371094 192.484375 C 196.402344 193.195312 198.378906 193.945312 200.289062 194.75 C 195.828125 199.710938 190.699219 204.0625 185.042969 207.65625 Z M 233.601562 278.972656 L 233.601562 272.535156 C 233.601562 264.484375 240.152344 257.933594 248.199219 257.933594 C 256.25 257.933594 262.800781 264.484375 262.800781 272.535156 L 262.800781 278.972656 C 258.371094 281.082031 253.421875 282.265625 248.199219 282.265625 C 242.976562 282.265625 238.027344 281.082031 233.601562 278.972656 Z M 238.46875 238.46875 C 238.46875 233.101562 242.835938 228.734375 248.199219 228.734375 C 253.566406 228.734375 257.933594 233.101562 257.933594 238.46875 C 257.933594 243.835938 253.566406 248.199219 248.199219 248.199219 C 242.835938 248.199219 238.46875 243.835938 238.46875 238.46875 Z M 272.519531 272.023438 C 272.351562 263.855469 268.144531 256.660156 261.808594 252.371094 C 265.421875 248.835938 267.667969 243.910156 267.667969 238.46875 C 267.667969 227.734375 258.933594 219 248.199219 219 C 237.464844 219 228.734375 227.734375 228.734375 238.46875 C 228.734375 243.910156 230.980469 248.835938 234.59375 252.371094 C 228.257812 256.660156 224.050781 263.855469 223.878906 272.023438 C 217.855469 265.875 214.132812 257.46875 214.132812 248.199219 C 214.132812 229.414062 229.417969 214.132812 248.199219 214.132812 C 266.984375 214.132812 282.265625 229.414062 282.265625 248.199219 C 282.265625 257.46875 278.542969 265.875 272.519531 272.023438 Z M 92.980469 31.890625 L 102.714844 12.421875 C 103.914062 10.019531 106.839844 9.046875 109.242188 10.246094 C 111.648438 11.449219 112.621094 14.371094 111.421875 16.777344 L 107.011719 25.597656 C 119.558594 21.53125 132.644531 19.464844 146 19.464844 C 161.703125 19.464844 177.027344 22.308594 191.554688 27.914062 C 194.0625 28.882812 195.308594 31.699219 194.339844 34.207031 C 193.59375 36.140625 191.753906 37.324219 189.800781 37.324219 C 189.21875 37.324219 188.625 37.21875 188.046875 36.996094 C 174.644531 31.824219 160.5 29.199219 146 29.199219 C 133.621094 29.199219 121.5 31.117188 109.878906 34.898438 L 118.976562 39.449219 C 121.382812 40.648438 122.355469 43.574219 121.152344 45.976562 C 120.300781 47.683594 118.582031 48.667969 116.796875 48.667969 C 116.066406 48.667969 115.324219 48.503906 114.625 48.152344 L 95.15625 38.417969 C 92.753906 37.21875 91.777344 34.292969 92.980469 31.890625 Z M 199.019531 260.109375 L 189.285156 279.578125 C 188.433594 281.28125 186.714844 282.269531 184.929688 282.269531 C 184.199219 282.269531 183.457031 282.101562 182.757812 281.753906 C 180.351562 280.550781 179.378906 277.628906 180.582031 275.222656 L 184.992188 266.402344 C 172.441406 270.46875 159.359375 272.535156 146 272.535156 C 130.296875 272.535156 114.972656 269.691406 100.449219 264.085938 C 97.941406 263.117188 96.691406 260.300781 97.660156 257.792969 C 98.628906 255.285156 101.445312 254.035156 103.953125 255.003906 C 117.355469 260.175781 131.5 262.800781 146 262.800781 C 158.378906 262.800781 170.5 260.882812 182.121094 257.101562 L 173.023438 252.554688 C 170.621094 251.351562 169.644531 248.429688 170.847656 246.023438 C 172.050781 243.621094 174.972656 242.644531 177.375 243.847656 L 196.84375 253.582031 C 199.246094 254.78125 200.222656 257.707031 199.019531 260.109375 Z M 275.222656 111.417969 L 266.402344 107.011719 C 270.46875 119.558594 272.535156 132.644531 272.535156 146 C 272.535156 161.703125 269.691406 177.03125 264.085938 191.554688 C 263.339844 193.484375 261.496094 194.667969 259.542969 194.667969 C 258.960938 194.667969 258.367188 194.5625 257.792969 194.339844 C 255.285156 193.371094 254.035156 190.554688 255.003906 188.046875 C 260.175781 174.648438 262.800781 160.5 262.800781 146 C 262.800781 133.621094 260.882812 121.5 257.101562 109.878906 L 252.554688 118.976562 C 251.703125 120.683594 249.984375 121.667969 248.195312 121.667969 C 247.464844 121.667969 246.722656 121.503906 246.023438 121.152344 C 243.621094 119.949219 242.644531 117.027344 243.847656 114.625 L 253.582031 95.15625 C 254.785156 92.753906 257.707031 91.777344 260.109375 92.980469 L 279.578125 102.714844 C 281.980469 103.917969 282.957031 106.839844 281.753906 109.242188 C 280.550781 111.648438 277.628906 112.621094 275.222656 111.417969 Z M 16.777344 180.582031 L 25.597656 184.992188 C 21.53125 172.441406 19.464844 159.359375 19.464844 146 C 19.464844 130.296875 22.308594 114.972656 27.914062 100.449219 C 28.882812 97.941406 31.703125 96.691406 34.207031 97.660156 C 36.714844 98.628906 37.964844 101.445312 36.996094 103.953125 C 31.824219 117.355469 29.199219 131.5 29.199219 146 C 29.199219 158.378906 31.117188 170.5 34.898438 182.121094 L 39.445312 173.023438 C 40.648438 170.621094 43.570312 169.644531 45.976562 170.847656 C 48.378906 172.050781 49.355469 174.972656 48.152344 177.378906 L 38.417969 196.84375 C 37.566406 198.550781 35.847656 199.535156 34.0625 199.535156 C 33.332031 199.535156 32.589844 199.371094 31.890625 199.019531 L 12.421875 189.285156 C 10.019531 188.085938 9.042969 185.160156 10.246094 182.757812 C 11.449219 180.355469 14.371094 179.378906 16.777344 180.582031 Z M 16.777344 180.582031 " clip-rule="nonzero"/></clipPath><linearGradient x1="16.00001" gradientTransform="matrix(0.608335, 0, 0, 0.608335, -9.733362, -9.733352)" y1="495.99999" x2="495.99999" gradientUnits="userSpaceOnUse" y2="16.00001" id="ce2fa6034e"><stop stop-opacity="1" stop-color="rgb(36.898804%, 73.699951%, 89.7995%)" offset="0"/><stop stop-opacity="1" stop-color="rgb(36.898804%, 73.699951%, 89.7995%)" offset="0.03125"/><stop stop-opacity="1" stop-color="rgb(37.005615%, 73.617554%, 89.7995%)" offset="0.046875"/><stop stop-opacity="1" stop-color="rgb(37.400818%, 73.312378%, 89.804077%)" offset="0.0507812"/><stop stop-opacity="1" stop-color="rgb(37.690735%, 73.0896%, 89.808655%)" offset="0.0546875"/><stop stop-opacity="1" stop-color="rgb(37.979126%, 72.866821%, 89.811707%)" offset="0.0585937"/><stop stop-opacity="1" stop-color="rgb(38.267517%, 72.644043%, 89.814758%)" offset="0.0625"/><stop stop-opacity="1" stop-color="rgb(38.555908%, 72.421265%, 89.81781%)" offset="0.0664062"/><stop stop-opacity="1" stop-color="rgb(38.844299%, 72.200012%, 89.822388%)" offset="0.0703125"/><stop stop-opacity="1" stop-color="rgb(39.13269%, 71.977234%, 89.825439%)" offset="0.0742187"/><stop stop-opacity="1" stop-color="rgb(39.421082%, 71.754456%, 89.828491%)" offset="0.078125"/><stop stop-opacity="1" stop-color="rgb(39.709473%, 71.531677%, 89.831543%)" offset="0.0820312"/><stop stop-opacity="1" stop-color="rgb(39.99939%, 71.308899%, 89.834595%)" offset="0.0859375"/><stop stop-opacity="1" stop-color="rgb(40.287781%, 71.086121%, 89.837646%)" offset="0.0898437"/><stop stop-opacity="1" stop-color="rgb(40.576172%, 70.864868%, 89.842224%)" offset="0.09375"/><stop stop-opacity="1" stop-color="rgb(40.864563%, 70.64209%, 89.845276%)" offset="0.0976562"/><stop stop-opacity="1" stop-color="rgb(41.152954%, 70.419312%, 89.848328%)" offset="0.101562"/><stop stop-opacity="1" stop-color="rgb(41.441345%, 70.196533%, 89.851379%)" offset="0.105469"/><stop stop-opacity="1" stop-color="rgb(41.731262%, 69.973755%, 89.855957%)" offset="0.109375"/><stop stop-opacity="1" stop-color="rgb(42.019653%, 69.750977%, 89.859009%)" offset="0.113281"/><stop stop-opacity="1" stop-color="rgb(42.308044%, 69.529724%, 89.862061%)" offset="0.117187"/><stop stop-opacity="1" stop-color="rgb(42.596436%, 69.306946%, 89.865112%)" offset="0.121094"/><stop stop-opacity="1" stop-color="rgb(42.884827%, 69.084167%, 89.868164%)" offset="0.125"/><stop stop-opacity="1" stop-color="rgb(43.173218%, 68.861389%, 89.871216%)" offset="0.128906"/><stop stop-opacity="1" stop-color="rgb(43.461609%, 68.638611%, 89.875793%)" offset="0.132812"/><stop stop-opacity="1" stop-color="rgb(43.75%, 68.415833%, 89.878845%)" offset="0.136719"/><stop stop-opacity="1" stop-color="rgb(44.039917%, 68.19458%, 89.881897%)" offset="0.140625"/><stop stop-opacity="1" stop-color="rgb(44.328308%, 67.971802%, 89.884949%)" offset="0.144531"/><stop stop-opacity="1" stop-color="rgb(44.616699%, 67.749023%, 89.888%)" offset="0.148437"/><stop stop-opacity="1" stop-color="rgb(44.90509%, 67.526245%, 89.891052%)" offset="0.152344"/><stop stop-opacity="1" stop-color="rgb(45.193481%, 67.303467%, 89.89563%)" offset="0.15625"/><stop stop-opacity="1" stop-color="rgb(45.481873%, 67.080688%, 89.898682%)" offset="0.160156"/><stop stop-opacity="1" stop-color="rgb(45.770264%, 66.859436%, 89.901733%)" offset="0.164062"/><stop stop-opacity="1" stop-color="rgb(46.058655%, 66.636658%, 89.904785%)" offset="0.167969"/><stop stop-opacity="1" stop-color="rgb(46.348572%, 66.413879%, 89.909363%)" offset="0.171875"/><stop stop-opacity="1" stop-color="rgb(46.636963%, 66.191101%, 89.912415%)" offset="0.175781"/><stop stop-opacity="1" stop-color="rgb(46.925354%, 65.968323%, 89.915466%)" offset="0.179687"/><stop stop-opacity="1" stop-color="rgb(47.213745%, 65.745544%, 89.918518%)" offset="0.183594"/><stop stop-opacity="1" stop-color="rgb(47.502136%, 65.524292%, 89.92157%)" offset="0.1875"/><stop stop-opacity="1" stop-color="rgb(47.790527%, 65.301514%, 89.924622%)" offset="0.191406"/><stop stop-opacity="1" stop-color="rgb(48.080444%, 65.078735%, 89.929199%)" offset="0.195312"/><stop stop-opacity="1" stop-color="rgb(48.368835%, 64.855957%, 89.932251%)" offset="0.199219"/><stop stop-opacity="1" stop-color="rgb(48.657227%, 64.633179%, 89.935303%)" offset="0.203125"/><stop stop-opacity="1" stop-color="rgb(48.945618%, 64.4104%, 89.938354%)" offset="0.207031"/><stop stop-opacity="1" stop-color="rgb(49.234009%, 64.189148%, 89.942932%)" offset="0.210937"/><stop stop-opacity="1" stop-color="rgb(49.5224%, 63.96637%, 89.945984%)" offset="0.214844"/><stop stop-opacity="1" stop-color="rgb(49.810791%, 63.743591%, 89.949036%)" offset="0.21875"/><stop stop-opacity="1" stop-color="rgb(50.099182%, 63.520813%, 89.952087%)" offset="0.222656"/><stop stop-opacity="1" stop-color="rgb(50.389099%, 63.298035%, 89.955139%)" offset="0.226562"/><stop stop-opacity="1" stop-color="rgb(50.67749%, 63.075256%, 89.958191%)" offset="0.230469"/><stop stop-opacity="1" stop-color="rgb(50.965881%, 62.854004%, 89.962769%)" offset="0.234375"/><stop stop-opacity="1" stop-color="rgb(51.254272%, 62.631226%, 89.96582%)" offset="0.238281"/><stop stop-opacity="1" stop-color="rgb(51.542664%, 62.408447%, 89.968872%)" offset="0.242187"/><stop stop-opacity="1" stop-color="rgb(51.831055%, 62.185669%, 89.971924%)" offset="0.246094"/><stop stop-opacity="1" stop-color="rgb(52.119446%, 61.964417%, 89.974976%)" offset="0.25"/><stop stop-opacity="1" stop-color="rgb(52.407837%, 61.741638%, 89.978027%)" offset="0.253906"/><stop stop-opacity="1" stop-color="rgb(52.697754%, 61.51886%, 89.982605%)" offset="0.257812"/><stop stop-opacity="1" stop-color="rgb(52.986145%, 61.296082%, 89.985657%)" offset="0.261719"/><stop stop-opacity="1" stop-color="rgb(53.274536%, 61.073303%, 89.988708%)" offset="0.265625"/><stop stop-opacity="1" stop-color="rgb(53.562927%, 60.850525%, 89.99176%)" offset="0.269531"/><stop stop-opacity="1" stop-color="rgb(53.851318%, 60.629272%, 89.996338%)" offset="0.273438"/><stop stop-opacity="1" stop-color="rgb(54.139709%, 60.406494%, 89.99939%)" offset="0.277344"/><stop stop-opacity="1" stop-color="rgb(54.429626%, 60.183716%, 90.002441%)" offset="0.28125"/><stop stop-opacity="1" stop-color="rgb(54.718018%, 59.960938%, 90.005493%)" offset="0.285156"/><stop stop-opacity="1" stop-color="rgb(55.006409%, 59.738159%, 90.008545%)" offset="0.289062"/><stop stop-opacity="1" stop-color="rgb(55.2948%, 59.515381%, 90.011597%)" offset="0.292969"/><stop stop-opacity="1" stop-color="rgb(55.583191%, 59.294128%, 90.016174%)" offset="0.296875"/><stop stop-opacity="1" stop-color="rgb(55.871582%, 59.07135%, 90.019226%)" offset="0.300781"/><stop stop-opacity="1" stop-color="rgb(56.159973%, 58.848572%, 90.022278%)" offset="0.304688"/><stop stop-opacity="1" stop-color="rgb(56.448364%, 58.625793%, 90.02533%)" offset="0.308594"/><stop stop-opacity="1" stop-color="rgb(56.738281%, 58.403015%, 90.029907%)" offset="0.3125"/><stop stop-opacity="1" stop-color="rgb(57.026672%, 58.180237%, 90.032959%)" offset="0.316406"/><stop stop-opacity="1" stop-color="rgb(57.315063%, 57.958984%, 90.036011%)" offset="0.320312"/><stop stop-opacity="1" stop-color="rgb(57.603455%, 57.736206%, 90.039062%)" offset="0.324219"/><stop stop-opacity="1" stop-color="rgb(57.891846%, 57.513428%, 90.042114%)" offset="0.328125"/><stop stop-opacity="1" stop-color="rgb(58.180237%, 57.290649%, 90.045166%)" offset="0.332031"/><stop stop-opacity="1" stop-color="rgb(58.468628%, 57.067871%, 90.049744%)" offset="0.335937"/><stop stop-opacity="1" stop-color="rgb(58.757019%, 56.845093%, 90.052795%)" offset="0.339844"/><stop stop-opacity="1" stop-color="rgb(59.046936%, 56.62384%, 90.055847%)" offset="0.34375"/><stop stop-opacity="1" stop-color="rgb(59.335327%, 56.401062%, 90.058899%)" offset="0.347656"/><stop stop-opacity="1" stop-color="rgb(59.623718%, 56.178284%, 90.061951%)" offset="0.351562"/><stop stop-opacity="1" stop-color="rgb(59.912109%, 55.955505%, 90.065002%)" offset="0.355469"/><stop stop-opacity="1" stop-color="rgb(60.2005%, 55.732727%, 90.06958%)" offset="0.359375"/><stop stop-opacity="1" stop-color="rgb(60.488892%, 55.509949%, 90.072632%)" offset="0.363281"/><stop stop-opacity="1" stop-color="rgb(60.778809%, 55.288696%, 90.075684%)" offset="0.367188"/><stop stop-opacity="1" stop-color="rgb(61.0672%, 55.065918%, 90.078735%)" offset="0.371094"/><stop stop-opacity="1" stop-color="rgb(61.355591%, 54.84314%, 90.083313%)" offset="0.375"/><stop stop-opacity="1" stop-color="rgb(61.643982%, 54.620361%, 90.086365%)" offset="0.378906"/><stop stop-opacity="1" stop-color="rgb(61.932373%, 54.397583%, 90.089417%)" offset="0.382812"/><stop stop-opacity="1" stop-color="rgb(62.220764%, 54.174805%, 90.092468%)" offset="0.386719"/><stop stop-opacity="1" stop-color="rgb(62.509155%, 53.953552%, 90.09552%)" offset="0.390625"/><stop stop-opacity="1" stop-color="rgb(62.797546%, 53.730774%, 90.098572%)" offset="0.394531"/><stop stop-opacity="1" stop-color="rgb(63.087463%, 53.507996%, 90.103149%)" offset="0.398438"/><stop stop-opacity="1" stop-color="rgb(63.375854%, 53.285217%, 90.106201%)" offset="0.402344"/><stop stop-opacity="1" stop-color="rgb(63.664246%, 53.062439%, 90.109253%)" offset="0.40625"/><stop stop-opacity="1" stop-color="rgb(63.952637%, 52.839661%, 90.112305%)" offset="0.410156"/><stop stop-opacity="1" stop-color="rgb(64.241028%, 52.618408%, 90.116882%)" offset="0.414062"/><stop stop-opacity="1" stop-color="rgb(64.529419%, 52.39563%, 90.119934%)" offset="0.417969"/><stop stop-opacity="1" stop-color="rgb(64.819336%, 52.172852%, 90.122986%)" offset="0.421875"/><stop stop-opacity="1" stop-color="rgb(65.107727%, 51.950073%, 90.126038%)" offset="0.425781"/><stop stop-opacity="1" stop-color="rgb(65.396118%, 51.727295%, 90.129089%)" offset="0.429688"/><stop stop-opacity="1" stop-color="rgb(65.684509%, 51.504517%, 90.132141%)" offset="0.433594"/><stop stop-opacity="1" stop-color="rgb(65.9729%, 51.283264%, 90.136719%)" offset="0.4375"/><stop stop-opacity="1" stop-color="rgb(66.261292%, 51.060486%, 90.139771%)" offset="0.441406"/><stop stop-opacity="1" stop-color="rgb(66.549683%, 50.837708%, 90.142822%)" offset="0.445312"/><stop stop-opacity="1" stop-color="rgb(66.838074%, 50.614929%, 90.145874%)" offset="0.449219"/><stop stop-opacity="1" stop-color="rgb(67.127991%, 50.392151%, 90.150452%)" offset="0.453125"/><stop stop-opacity="1" stop-color="rgb(67.416382%, 50.169373%, 90.153503%)" offset="0.457031"/><stop stop-opacity="1" stop-color="rgb(67.704773%, 49.94812%, 90.156555%)" offset="0.460937"/><stop stop-opacity="1" stop-color="rgb(67.993164%, 49.725342%, 90.159607%)" offset="0.464844"/><stop stop-opacity="1" stop-color="rgb(68.281555%, 49.502563%, 90.162659%)" offset="0.46875"/><stop stop-opacity="1" stop-color="rgb(68.569946%, 49.279785%, 90.16571%)" offset="0.472656"/><stop stop-opacity="1" stop-color="rgb(68.858337%, 49.057007%, 90.170288%)" offset="0.476562"/><stop stop-opacity="1" stop-color="rgb(69.146729%, 48.834229%, 90.17334%)" offset="0.480469"/><stop stop-opacity="1" stop-color="rgb(69.436646%, 48.612976%, 90.176392%)" offset="0.484375"/><stop stop-opacity="1" stop-color="rgb(69.725037%, 48.390198%, 90.179443%)" offset="0.488281"/><stop stop-opacity="1" stop-color="rgb(70.013428%, 48.167419%, 90.182495%)" offset="0.492188"/><stop stop-opacity="1" stop-color="rgb(70.301819%, 47.944641%, 90.185547%)" offset="0.496094"/><stop stop-opacity="1" stop-color="rgb(70.59021%, 47.723389%, 90.190125%)" offset="0.5"/><stop stop-opacity="1" stop-color="rgb(70.878601%, 47.50061%, 90.193176%)" offset="0.503906"/><stop stop-opacity="1" stop-color="rgb(71.168518%, 47.277832%, 90.196228%)" offset="0.507812"/><stop stop-opacity="1" stop-color="rgb(71.374512%, 47.128296%, 89.923096%)" offset="0.511719"/><stop stop-opacity="1" stop-color="rgb(71.580505%, 46.97876%, 89.649963%)" offset="0.515625"/><stop stop-opacity="1" stop-color="rgb(71.731567%, 46.878052%, 89.1922%)" offset="0.519531"/><stop stop-opacity="1" stop-color="rgb(71.882629%, 46.77887%, 88.734436%)" offset="0.523438"/><stop stop-opacity="1" stop-color="rgb(72.032166%, 46.678162%, 88.275146%)" offset="0.527344"/><stop stop-opacity="1" stop-color="rgb(72.183228%, 46.578979%, 87.817383%)" offset="0.53125"/><stop stop-opacity="1" stop-color="rgb(72.33429%, 46.478271%, 87.359619%)" offset="0.535156"/><stop stop-opacity="1" stop-color="rgb(72.485352%, 46.379089%, 86.901855%)" offset="0.539062"/><stop stop-opacity="1" stop-color="rgb(72.636414%, 46.278381%, 86.442566%)" offset="0.542969"/><stop stop-opacity="1" stop-color="rgb(72.787476%, 46.179199%, 85.984802%)" offset="0.546875"/><stop stop-opacity="1" stop-color="rgb(72.938538%, 46.078491%, 85.527039%)" offset="0.550781"/><stop stop-opacity="1" stop-color="rgb(73.0896%, 45.979309%, 85.069275%)" offset="0.554688"/><stop stop-opacity="1" stop-color="rgb(73.240662%, 45.878601%, 84.609985%)" offset="0.558594"/><stop stop-opacity="1" stop-color="rgb(73.391724%, 45.779419%, 84.152222%)" offset="0.5625"/><stop stop-opacity="1" stop-color="rgb(73.542786%, 45.678711%, 83.694458%)" offset="0.566406"/><stop stop-opacity="1" stop-color="rgb(73.693848%, 45.578003%, 83.236694%)" offset="0.570312"/><stop stop-opacity="1" stop-color="rgb(73.84491%, 45.477295%, 82.777405%)" offset="0.574219"/><stop stop-opacity="1" stop-color="rgb(73.995972%, 45.378113%, 82.319641%)" offset="0.578125"/><stop stop-opacity="1" stop-color="rgb(74.147034%, 45.277405%, 81.861877%)" offset="0.582031"/><stop stop-opacity="1" stop-color="rgb(74.298096%, 45.178223%, 81.404114%)" offset="0.585938"/><stop stop-opacity="1" stop-color="rgb(74.447632%, 45.077515%, 80.944824%)" offset="0.589844"/><stop stop-opacity="1" stop-color="rgb(74.598694%, 44.978333%, 80.487061%)" offset="0.59375"/><stop stop-opacity="1" stop-color="rgb(74.749756%, 44.877625%, 80.029297%)" offset="0.597656"/><stop stop-opacity="1" stop-color="rgb(74.900818%, 44.778442%, 79.571533%)" offset="0.601562"/><stop stop-opacity="1" stop-color="rgb(75.05188%, 44.677734%, 79.112244%)" offset="0.605469"/><stop stop-opacity="1" stop-color="rgb(75.202942%, 44.578552%, 78.65448%)" offset="0.609375"/><stop stop-opacity="1" stop-color="rgb(75.354004%, 44.477844%, 78.196716%)" offset="0.613281"/><stop stop-opacity="1" stop-color="rgb(75.505066%, 44.378662%, 77.738953%)" offset="0.617188"/><stop stop-opacity="1" stop-color="rgb(75.656128%, 44.277954%, 77.279663%)" offset="0.621094"/><stop stop-opacity="1" stop-color="rgb(75.80719%, 44.177246%, 76.821899%)" offset="0.625"/><stop stop-opacity="1" stop-color="rgb(75.958252%, 44.076538%, 76.364136%)" offset="0.628906"/><stop stop-opacity="1" stop-color="rgb(76.109314%, 43.977356%, 75.906372%)" offset="0.632812"/><stop stop-opacity="1" stop-color="rgb(76.260376%, 43.876648%, 75.447083%)" offset="0.636719"/><stop stop-opacity="1" stop-color="rgb(76.411438%, 43.777466%, 74.989319%)" offset="0.640625"/><stop stop-opacity="1" stop-color="rgb(76.560974%, 43.676758%, 74.531555%)" offset="0.644531"/><stop stop-opacity="1" stop-color="rgb(76.712036%, 43.577576%, 74.073792%)" offset="0.648438"/><stop stop-opacity="1" stop-color="rgb(76.863098%, 43.476868%, 73.614502%)" offset="0.652344"/><stop stop-opacity="1" stop-color="rgb(77.01416%, 43.377686%, 73.156738%)" offset="0.65625"/><stop stop-opacity="1" stop-color="rgb(77.165222%, 43.276978%, 72.698975%)" offset="0.660156"/><stop stop-opacity="1" stop-color="rgb(77.316284%, 43.177795%, 72.241211%)" offset="0.664062"/><stop stop-opacity="1" stop-color="rgb(77.467346%, 43.077087%, 71.781921%)" offset="0.667969"/><stop stop-opacity="1" stop-color="rgb(77.618408%, 42.977905%, 71.324158%)" offset="0.671875"/><stop stop-opacity="1" stop-color="rgb(77.76947%, 42.877197%, 70.866394%)" offset="0.675781"/><stop stop-opacity="1" stop-color="rgb(77.920532%, 42.776489%, 70.40863%)" offset="0.679688"/><stop stop-opacity="1" stop-color="rgb(78.071594%, 42.675781%, 69.949341%)" offset="0.683594"/><stop stop-opacity="1" stop-color="rgb(78.222656%, 42.576599%, 69.491577%)" offset="0.6875"/><stop stop-opacity="1" stop-color="rgb(78.373718%, 42.475891%, 69.033813%)" offset="0.691406"/><stop stop-opacity="1" stop-color="rgb(78.52478%, 42.376709%, 68.57605%)" offset="0.695312"/><stop stop-opacity="1" stop-color="rgb(78.674316%, 42.276001%, 68.11676%)" offset="0.699219"/><stop stop-opacity="1" stop-color="rgb(78.825378%, 42.176819%, 67.658997%)" offset="0.703125"/><stop stop-opacity="1" stop-color="rgb(78.97644%, 42.076111%, 67.201233%)" offset="0.707031"/><stop stop-opacity="1" stop-color="rgb(79.127502%, 41.976929%, 66.743469%)" offset="0.710938"/><stop stop-opacity="1" stop-color="rgb(79.278564%, 41.876221%, 66.28418%)" offset="0.714844"/><stop stop-opacity="1" stop-color="rgb(79.429626%, 41.777039%, 65.826416%)" offset="0.71875"/><stop stop-opacity="1" stop-color="rgb(79.580688%, 41.676331%, 65.368652%)" offset="0.722656"/><stop stop-opacity="1" stop-color="rgb(79.73175%, 41.577148%, 64.910889%)" offset="0.726562"/><stop stop-opacity="1" stop-color="rgb(79.882812%, 41.47644%, 64.451599%)" offset="0.730469"/><stop stop-opacity="1" stop-color="rgb(80.033875%, 41.375732%, 63.993835%)" offset="0.734375"/><stop stop-opacity="1" stop-color="rgb(80.184937%, 41.275024%, 63.536072%)" offset="0.738281"/><stop stop-opacity="1" stop-color="rgb(80.335999%, 41.175842%, 63.078308%)" offset="0.742188"/><stop stop-opacity="1" stop-color="rgb(80.487061%, 41.075134%, 62.619019%)" offset="0.746094"/><stop stop-opacity="1" stop-color="rgb(80.638123%, 40.975952%, 62.161255%)" offset="0.75"/><stop stop-opacity="1" stop-color="rgb(80.789185%, 40.875244%, 61.703491%)" offset="0.753906"/><stop stop-opacity="1" stop-color="rgb(80.940247%, 40.776062%, 61.245728%)" offset="0.757812"/><stop stop-opacity="1" stop-color="rgb(81.089783%, 40.675354%, 60.786438%)" offset="0.761719"/><stop stop-opacity="1" stop-color="rgb(81.240845%, 40.576172%, 60.328674%)" offset="0.765625"/><stop stop-opacity="1" stop-color="rgb(81.391907%, 40.475464%, 59.870911%)" offset="0.769531"/><stop stop-opacity="1" stop-color="rgb(81.542969%, 40.376282%, 59.413147%)" offset="0.773438"/><stop stop-opacity="1" stop-color="rgb(81.694031%, 40.275574%, 58.953857%)" offset="0.777344"/><stop stop-opacity="1" stop-color="rgb(81.845093%, 40.176392%, 58.496094%)" offset="0.78125"/><stop stop-opacity="1" stop-color="rgb(81.996155%, 40.075684%, 58.03833%)" offset="0.785156"/><stop stop-opacity="1" stop-color="rgb(82.147217%, 39.974976%, 57.580566%)" offset="0.789062"/><stop stop-opacity="1" stop-color="rgb(82.298279%, 39.874268%, 57.121277%)" offset="0.792969"/><stop stop-opacity="1" stop-color="rgb(82.449341%, 39.775085%, 56.663513%)" offset="0.796875"/><stop stop-opacity="1" stop-color="rgb(82.600403%, 39.674377%, 56.20575%)" offset="0.800781"/><stop stop-opacity="1" stop-color="rgb(82.751465%, 39.575195%, 55.747986%)" offset="0.804688"/><stop stop-opacity="1" stop-color="rgb(82.902527%, 39.474487%, 55.288696%)" offset="0.808594"/><stop stop-opacity="1" stop-color="rgb(83.053589%, 39.375305%, 54.830933%)" offset="0.8125"/><stop stop-opacity="1" stop-color="rgb(83.203125%, 39.274597%, 54.373169%)" offset="0.816406"/><stop stop-opacity="1" stop-color="rgb(83.354187%, 39.175415%, 53.915405%)" offset="0.820312"/><stop stop-opacity="1" stop-color="rgb(83.505249%, 39.074707%, 53.456116%)" offset="0.824219"/><stop stop-opacity="1" stop-color="rgb(83.656311%, 38.975525%, 52.998352%)" offset="0.828125"/><stop stop-opacity="1" stop-color="rgb(83.807373%, 38.874817%, 52.540588%)" offset="0.832031"/><stop stop-opacity="1" stop-color="rgb(83.958435%, 38.775635%, 52.082825%)" offset="0.835938"/><stop stop-opacity="1" stop-color="rgb(84.109497%, 38.674927%, 51.623535%)" offset="0.839844"/><stop stop-opacity="1" stop-color="rgb(84.260559%, 38.574219%, 51.165771%)" offset="0.84375"/><stop stop-opacity="1" stop-color="rgb(84.411621%, 38.473511%, 50.708008%)" offset="0.847656"/><stop stop-opacity="1" stop-color="rgb(84.562683%, 38.374329%, 50.250244%)" offset="0.851562"/><stop stop-opacity="1" stop-color="rgb(84.713745%, 38.273621%, 49.790955%)" offset="0.855469"/><stop stop-opacity="1" stop-color="rgb(84.864807%, 38.174438%, 49.333191%)" offset="0.859375"/><stop stop-opacity="1" stop-color="rgb(85.015869%, 38.07373%, 48.875427%)" offset="0.863281"/><stop stop-opacity="1" stop-color="rgb(85.166931%, 37.974548%, 48.417664%)" offset="0.867188"/><stop stop-opacity="1" stop-color="rgb(85.317993%, 37.87384%, 47.958374%)" offset="0.871094"/><stop stop-opacity="1" stop-color="rgb(85.469055%, 37.774658%, 47.50061%)" offset="0.875"/><stop stop-opacity="1" stop-color="rgb(85.618591%, 37.67395%, 47.042847%)" offset="0.878906"/><stop stop-opacity="1" stop-color="rgb(85.769653%, 37.574768%, 46.585083%)" offset="0.882812"/><stop stop-opacity="1" stop-color="rgb(85.920715%, 37.47406%, 46.125793%)" offset="0.886719"/><stop stop-opacity="1" stop-color="rgb(86.071777%, 37.374878%, 45.66803%)" offset="0.890625"/><stop stop-opacity="1" stop-color="rgb(86.222839%, 37.27417%, 45.210266%)" offset="0.894531"/><stop stop-opacity="1" stop-color="rgb(86.373901%, 37.173462%, 44.752502%)" offset="0.898438"/><stop stop-opacity="1" stop-color="rgb(86.524963%, 37.072754%, 44.293213%)" offset="0.902344"/><stop stop-opacity="1" stop-color="rgb(86.676025%, 36.973572%, 43.835449%)" offset="0.90625"/><stop stop-opacity="1" stop-color="rgb(86.827087%, 36.872864%, 43.377686%)" offset="0.910156"/><stop stop-opacity="1" stop-color="rgb(86.978149%, 36.773682%, 42.919922%)" offset="0.914062"/><stop stop-opacity="1" stop-color="rgb(87.129211%, 36.672974%, 42.460632%)" offset="0.917969"/><stop stop-opacity="1" stop-color="rgb(87.280273%, 36.573792%, 42.002869%)" offset="0.921875"/><stop stop-opacity="1" stop-color="rgb(87.431335%, 36.473083%, 41.545105%)" offset="0.925781"/><stop stop-opacity="1" stop-color="rgb(87.582397%, 36.373901%, 41.087341%)" offset="0.929688"/><stop stop-opacity="1" stop-color="rgb(87.731934%, 36.273193%, 40.628052%)" offset="0.933594"/><stop stop-opacity="1" stop-color="rgb(87.882996%, 36.174011%, 40.170288%)" offset="0.9375"/><stop stop-opacity="1" stop-color="rgb(88.034058%, 36.073303%, 39.712524%)" offset="0.941406"/><stop stop-opacity="1" stop-color="rgb(88.18512%, 35.974121%, 39.254761%)" offset="0.945313"/><stop stop-opacity="1" stop-color="rgb(88.336182%, 35.873413%, 38.795471%)" offset="0.949219"/><stop stop-opacity="1" stop-color="rgb(88.487244%, 35.772705%, 38.337708%)" offset="0.953125"/><stop stop-opacity="1" stop-color="rgb(88.542175%, 35.736084%, 38.168335%)" offset="0.96875"/><stop stop-opacity="1" stop-color="rgb(88.598633%, 35.699463%, 37.998962%)" offset="1"/></linearGradient></defs><g clip-path="url(#eda22a3487)"><g clip-path="url(#0b857a2186)"><path fill="url(#ce2fa6034e)" d="M 0 0 L 0 292 L 292 292 L 292 0 Z M 0 0 " fill-rule="nonzero"/></g></g><g fill="#000000" fill-opacity="1"><g transform="translate(94.392277, 244.077495)"><g><path d="M 8.09375 0.15625 C 6.71875 0.15625 5.398438 -0.0625 4.140625 -0.5 C 2.890625 -0.9375 1.921875 -1.515625 1.234375 -2.234375 L 2 -3.75 C 2.664062 -3.070312 3.550781 -2.523438 4.65625 -2.109375 C 5.769531 -1.703125 6.914062 -1.5 8.09375 -1.5 C 9.738281 -1.5 10.972656 -1.800781 11.796875 -2.40625 C 12.628906 -3.019531 13.046875 -3.804688 13.046875 -4.765625 C 13.046875 -5.503906 12.820312 -6.09375 12.375 -6.53125 C 11.925781 -6.976562 11.375 -7.316406 10.71875 -7.546875 C 10.070312 -7.785156 9.171875 -8.046875 8.015625 -8.328125 C 6.628906 -8.679688 5.519531 -9.019531 4.6875 -9.34375 C 3.863281 -9.664062 3.15625 -10.160156 2.5625 -10.828125 C 1.976562 -11.492188 1.6875 -12.398438 1.6875 -13.546875 C 1.6875 -14.484375 1.929688 -15.332031 2.421875 -16.09375 C 2.910156 -16.851562 3.664062 -17.460938 4.6875 -17.921875 C 5.707031 -18.378906 6.972656 -18.609375 8.484375 -18.609375 C 9.535156 -18.609375 10.566406 -18.460938 11.578125 -18.171875 C 12.585938 -17.878906 13.460938 -17.476562 14.203125 -16.96875 L 13.546875 -15.421875 C 12.773438 -15.929688 11.945312 -16.3125 11.0625 -16.5625 C 10.1875 -16.820312 9.328125 -16.953125 8.484375 -16.953125 C 6.867188 -16.953125 5.648438 -16.640625 4.828125 -16.015625 C 4.015625 -15.390625 3.609375 -14.582031 3.609375 -13.59375 C 3.609375 -12.863281 3.832031 -12.273438 4.28125 -11.828125 C 4.726562 -11.378906 5.289062 -11.035156 5.96875 -10.796875 C 6.644531 -10.554688 7.554688 -10.296875 8.703125 -10.015625 C 10.054688 -9.679688 11.148438 -9.351562 11.984375 -9.03125 C 12.816406 -8.707031 13.519531 -8.210938 14.09375 -7.546875 C 14.675781 -6.890625 14.96875 -6 14.96875 -4.875 C 14.96875 -3.945312 14.71875 -3.097656 14.21875 -2.328125 C 13.71875 -1.566406 12.945312 -0.960938 11.90625 -0.515625 C 10.875 -0.0664062 9.601562 0.15625 8.09375 0.15625 Z M 8.09375 0.15625 "/></g></g><g transform="translate(110.60617, 244.077495)"><g><path d="M 9.671875 -13.96875 C 11.410156 -13.96875 12.796875 -13.460938 13.828125 -12.453125 C 14.859375 -11.441406 15.375 -9.972656 15.375 -8.046875 L 15.375 0 L 13.5 0 L 13.5 -7.859375 C 13.5 -9.296875 13.132812 -10.390625 12.40625 -11.140625 C 11.6875 -11.898438 10.660156 -12.28125 9.328125 -12.28125 C 7.835938 -12.28125 6.65625 -11.835938 5.78125 -10.953125 C 4.914062 -10.066406 4.484375 -8.84375 4.484375 -7.28125 L 4.484375 0 L 2.609375 0 L 2.609375 -19.5625 L 4.484375 -19.5625 L 4.484375 -11.4375 C 4.992188 -12.25 5.695312 -12.875 6.59375 -13.3125 C 7.488281 -13.75 8.515625 -13.96875 9.671875 -13.96875 Z M 9.671875 -13.96875 "/></g></g><g transform="translate(128.454634, 244.077495)"><g><path d="M 7.453125 -13.96875 C 9.265625 -13.96875 10.65625 -13.515625 11.625 -12.609375 C 12.59375 -11.703125 13.078125 -10.363281 13.078125 -8.59375 L 13.078125 0 L 11.28125 0 L 11.28125 -2.15625 C 10.863281 -1.4375 10.242188 -0.875 9.421875 -0.46875 C 8.609375 -0.0703125 7.640625 0.125 6.515625 0.125 C 4.960938 0.125 3.726562 -0.238281 2.8125 -0.96875 C 1.90625 -1.707031 1.453125 -2.6875 1.453125 -3.90625 C 1.453125 -5.082031 1.875 -6.03125 2.71875 -6.75 C 3.570312 -7.46875 4.929688 -7.828125 6.796875 -7.828125 L 11.203125 -7.828125 L 11.203125 -8.671875 C 11.203125 -9.867188 10.867188 -10.78125 10.203125 -11.40625 C 9.535156 -12.03125 8.5625 -12.34375 7.28125 -12.34375 C 6.394531 -12.34375 5.546875 -12.195312 4.734375 -11.90625 C 3.929688 -11.613281 3.238281 -11.210938 2.65625 -10.703125 L 1.8125 -12.09375 C 2.519531 -12.695312 3.363281 -13.160156 4.34375 -13.484375 C 5.332031 -13.804688 6.367188 -13.96875 7.453125 -13.96875 Z M 6.796875 -1.34375 C 7.847656 -1.34375 8.753906 -1.582031 9.515625 -2.0625 C 10.273438 -2.550781 10.835938 -3.253906 11.203125 -4.171875 L 11.203125 -6.4375 L 6.859375 -6.4375 C 4.484375 -6.4375 3.296875 -5.609375 3.296875 -3.953125 C 3.296875 -3.140625 3.601562 -2.5 4.21875 -2.03125 C 4.832031 -1.570312 5.691406 -1.34375 6.796875 -1.34375 Z M 6.796875 -1.34375 "/></g></g></g><g fill="#000000" fill-opacity="1"><g transform="translate(144.009425, 244.077495)"><g><path d="M 4.40625 -11.15625 C 4.84375 -12.082031 5.492188 -12.78125 6.359375 -13.25 C 7.234375 -13.726562 8.3125 -13.96875 9.59375 -13.96875 L 9.59375 -12.15625 L 9.140625 -12.171875 C 7.679688 -12.171875 6.539062 -11.722656 5.71875 -10.828125 C 4.894531 -9.929688 4.484375 -8.675781 4.484375 -7.0625 L 4.484375 0 L 2.609375 0 L 2.609375 -13.859375 L 4.40625 -13.859375 Z M 4.40625 -11.15625 "/></g></g></g><g fill="#000000" fill-opacity="1"><g transform="translate(154.581408, 244.077495)"><g><path d="M 2.609375 -13.859375 L 4.484375 -13.859375 L 4.484375 0 L 2.609375 0 Z M 3.5625 -16.890625 C 3.175781 -16.890625 2.847656 -17.019531 2.578125 -17.28125 C 2.316406 -17.550781 2.1875 -17.867188 2.1875 -18.234375 C 2.1875 -18.585938 2.316406 -18.894531 2.578125 -19.15625 C 2.847656 -19.425781 3.175781 -19.5625 3.5625 -19.5625 C 3.945312 -19.5625 4.269531 -19.429688 4.53125 -19.171875 C 4.800781 -18.921875 4.9375 -18.617188 4.9375 -18.265625 C 4.9375 -17.878906 4.800781 -17.550781 4.53125 -17.28125 C 4.269531 -17.019531 3.945312 -16.890625 3.5625 -16.890625 Z M 3.5625 -16.890625 "/></g></g></g><g fill="#000000" fill-opacity="1"><g transform="translate(161.673336, 244.077495)"><g><path d="M 9.671875 -13.96875 C 11.410156 -13.96875 12.796875 -13.460938 13.828125 -12.453125 C 14.859375 -11.441406 15.375 -9.972656 15.375 -8.046875 L 15.375 0 L 13.5 0 L 13.5 -7.859375 C 13.5 -9.296875 13.132812 -10.390625 12.40625 -11.140625 C 11.6875 -11.898438 10.660156 -12.28125 9.328125 -12.28125 C 7.835938 -12.28125 6.65625 -11.835938 5.78125 -10.953125 C 4.914062 -10.066406 4.484375 -8.84375 4.484375 -7.28125 L 4.484375 0 L 2.609375 0 L 2.609375 -13.859375 L 4.40625 -13.859375 L 4.40625 -11.3125 C 4.914062 -12.15625 5.617188 -12.804688 6.515625 -13.265625 C 7.421875 -13.734375 8.472656 -13.96875 9.671875 -13.96875 Z M 9.671875 -13.96875 "/></g></g><g transform="translate(179.5218, 244.077495)"><g><path d="M 15.453125 -13.859375 L 15.453125 -1.6875 C 15.453125 0.664062 14.875 2.410156 13.71875 3.546875 C 12.570312 4.679688 10.835938 5.25 8.515625 5.25 C 7.234375 5.25 6.015625 5.054688 4.859375 4.671875 C 3.710938 4.296875 2.78125 3.773438 2.0625 3.109375 L 3 1.6875 C 3.664062 2.28125 4.476562 2.742188 5.4375 3.078125 C 6.394531 3.410156 7.40625 3.578125 8.46875 3.578125 C 10.21875 3.578125 11.503906 3.171875 12.328125 2.359375 C 13.160156 1.546875 13.578125 0.273438 13.578125 -1.453125 L 13.578125 -3.21875 C 12.992188 -2.332031 12.234375 -1.660156 11.296875 -1.203125 C 10.359375 -0.753906 9.316406 -0.53125 8.171875 -0.53125 C 6.867188 -0.53125 5.6875 -0.8125 4.625 -1.375 C 3.5625 -1.945312 2.726562 -2.75 2.125 -3.78125 C 1.519531 -4.8125 1.21875 -5.976562 1.21875 -7.28125 C 1.21875 -8.570312 1.519531 -9.726562 2.125 -10.75 C 2.726562 -11.769531 3.554688 -12.5625 4.609375 -13.125 C 5.660156 -13.6875 6.847656 -13.96875 8.171875 -13.96875 C 9.347656 -13.96875 10.410156 -13.726562 11.359375 -13.25 C 12.304688 -12.78125 13.070312 -12.097656 13.65625 -11.203125 L 13.65625 -13.859375 Z M 8.359375 -2.1875 C 9.359375 -2.1875 10.257812 -2.398438 11.0625 -2.828125 C 11.875 -3.265625 12.503906 -3.867188 12.953125 -4.640625 C 13.398438 -5.410156 13.625 -6.289062 13.625 -7.28125 C 13.625 -8.257812 13.398438 -9.128906 12.953125 -9.890625 C 12.503906 -10.660156 11.878906 -11.257812 11.078125 -11.6875 C 10.285156 -12.125 9.378906 -12.34375 8.359375 -12.34375 C 7.359375 -12.34375 6.457031 -12.128906 5.65625 -11.703125 C 4.851562 -11.285156 4.226562 -10.6875 3.78125 -9.90625 C 3.332031 -9.132812 3.109375 -8.257812 3.109375 -7.28125 C 3.109375 -6.289062 3.332031 -5.410156 3.78125 -4.640625 C 4.226562 -3.867188 4.851562 -3.265625 5.65625 -2.828125 C 6.457031 -2.398438 7.359375 -2.1875 8.359375 -2.1875 Z M 8.359375 -2.1875 "/></g></g></g></svg>